<svg width="1400" height="270" viewBox="0 0 1400 270" fill="none" xmlns="http://www.w3.org/2000/svg">
<g clip-path="url(#clip0_23_2)">
<circle cx="1256.2" cy="29.1957" r="9.19566" fill="#A5A5A5"/>
<circle cx="1256.2" cy="261.209" r="9.19566" fill="#A5A5A5"/>
<circle cx="1256.2" cy="87.1991" r="9.19566" fill="#A5A5A5"/>
<circle cx="1256.2" cy="145.202" r="9.19566" fill="#A5A5A5"/>
<circle cx="1256.2" cy="203.206" r="9.19566" fill="#A5A5A5"/>
<circle cx="1383.52" cy="29.1957" r="9.19566" fill="#A5A5A5"/>
<circle cx="1383.52" cy="261.209" r="9.19566" fill="#A5A5A5"/>
<circle cx="1383.52" cy="87.1991" r="9.19566" fill="#A5A5A5"/>
<circle cx="1383.52" cy="145.202" r="9.19566" fill="#A5A5A5"/>
<circle cx="1383.52" cy="203.206" r="9.19566" fill="#A5A5A5"/>
<circle cx="1319.86" cy="29.1957" r="9.19566" fill="#A5A5A5"/>
<circle cx="1319.86" cy="261.209" r="9.19566" fill="#A5A5A5"/>
<circle cx="1319.86" cy="87.1991" r="9.19566" fill="#A5A5A5"/>
<circle cx="1319.86" cy="145.202" r="9.19566" fill="#A5A5A5"/>
<circle cx="1319.86" cy="203.206" r="9.19566" fill="#A5A5A5"/>
<path d="M227.6 29V15H229.28V21.22H235.84V15H237.52V29H235.84V22.74H229.28V29H227.6ZM240.785 29V19.22H242.365V29H240.785ZM241.585 17.7C241.238 17.7 240.945 17.5867 240.705 17.36C240.478 17.1333 240.365 16.8467 240.365 16.5C240.365 16.14 240.478 15.8467 240.705 15.62C240.945 15.3933 241.238 15.28 241.585 15.28C241.932 15.28 242.218 15.3933 242.445 15.62C242.672 15.8467 242.785 16.14 242.785 16.5C242.785 16.8467 242.672 17.1333 242.445 17.36C242.218 17.5867 241.932 17.7 241.585 17.7ZM245.527 31.5V30.5H246.107C246.587 30.5 246.827 30.26 246.827 29.78V29.14H246.547C246.161 29.14 245.834 29.02 245.567 28.78C245.314 28.54 245.187 28.24 245.187 27.88C245.187 27.4933 245.314 27.18 245.567 26.94C245.834 26.7 246.161 26.58 246.547 26.58C246.934 26.58 247.254 26.7067 247.507 26.96C247.761 27.2133 247.887 27.5333 247.887 27.92V29.78C247.887 30.9267 247.314 31.5 246.167 31.5H245.527ZM255.18 29V19.22H256.72V20.44H257C257.186 20.0933 257.493 19.7733 257.92 19.48C258.346 19.1867 258.946 19.04 259.72 19.04C260.48 19.04 261.093 19.2067 261.56 19.54C262.04 19.8733 262.386 20.28 262.6 20.76H262.88C263.106 20.28 263.446 19.8733 263.9 19.54C264.366 19.2067 265.013 19.04 265.84 19.04C266.493 19.04 267.066 19.1733 267.56 19.44C268.053 19.7067 268.44 20.0933 268.72 20.6C269.013 21.0933 269.16 21.6867 269.16 22.38V29H267.58V22.52C267.58 21.8667 267.386 21.3533 267 20.98C266.626 20.5933 266.1 20.4 265.42 20.4C264.7 20.4 264.106 20.6333 263.64 21.1C263.186 21.5667 262.96 22.24 262.96 23.12V29H261.38V22.52C261.38 21.8667 261.186 21.3533 260.8 20.98C260.426 20.5933 259.9 20.4 259.22 20.4C258.5 20.4 257.906 20.6333 257.44 21.1C256.986 21.5667 256.76 22.24 256.76 23.12V29H255.18ZM273.41 33V31.6H279.01C279.397 31.6 279.59 31.4 279.59 31V27.44H279.31C279.177 27.72 278.97 28 278.69 28.28C278.424 28.5467 278.07 28.7667 277.63 28.94C277.19 29.1 276.637 29.18 275.97 29.18C275.264 29.18 274.61 29.0267 274.01 28.72C273.424 28.4133 272.957 27.96 272.61 27.36C272.277 26.76 272.11 26.0267 272.11 25.16V19.22H273.69V25.04C273.69 26 273.93 26.7 274.41 27.14C274.904 27.58 275.564 27.8 276.39 27.8C277.324 27.8 278.09 27.4933 278.69 26.88C279.29 26.2667 279.59 25.3533 279.59 24.14V19.22H281.17V31.28C281.17 31.8133 281.017 32.2333 280.71 32.54C280.417 32.8467 279.984 33 279.41 33H273.41ZM289.613 29V19.22H291.153V20.88H291.433C291.646 20.4133 292.006 19.9933 292.513 19.62C293.033 19.2333 293.793 19.04 294.793 19.04C295.526 19.04 296.18 19.1933 296.753 19.5C297.34 19.8067 297.806 20.26 298.153 20.86C298.5 21.46 298.673 22.2 298.673 23.08V29H297.093V23.2C297.093 22.2267 296.846 21.52 296.353 21.08C295.873 20.64 295.22 20.42 294.393 20.42C293.446 20.42 292.673 20.7267 292.073 21.34C291.486 21.9533 291.193 22.8667 291.193 24.08V29H289.613ZM304.879 29.28C304.199 29.28 303.579 29.16 303.019 28.92C302.459 28.68 302.019 28.3333 301.699 27.88C301.379 27.4267 301.219 26.8733 301.219 26.22C301.219 25.5533 301.379 25.0067 301.699 24.58C302.019 24.14 302.459 23.8133 303.019 23.6C303.579 23.3733 304.205 23.26 304.899 23.26H308.199V22.54C308.199 21.8467 307.992 21.3 307.579 20.9C307.179 20.5 306.579 20.3 305.779 20.3C304.992 20.3 304.379 20.4933 303.939 20.88C303.499 21.2533 303.199 21.76 303.039 22.4L301.559 21.92C301.719 21.3733 301.972 20.88 302.319 20.44C302.665 19.9867 303.125 19.6267 303.699 19.36C304.285 19.08 304.985 18.94 305.799 18.94C307.052 18.94 308.025 19.2667 308.719 19.92C309.412 20.56 309.759 21.4667 309.759 22.64V27.06C309.759 27.46 309.945 27.66 310.319 27.66H311.219V29H309.839C309.399 29 309.045 28.88 308.779 28.64C308.512 28.3867 308.379 28.0533 308.379 27.64V27.54H308.139C307.992 27.7933 307.792 28.06 307.539 28.34C307.299 28.6067 306.965 28.8267 306.539 29C306.112 29.1867 305.559 29.28 304.879 29.28ZM305.059 27.92C305.992 27.92 306.745 27.6467 307.319 27.1C307.905 26.54 308.199 25.76 308.199 24.76V24.54H304.959C304.332 24.54 303.812 24.68 303.399 24.96C302.999 25.2267 302.799 25.6333 302.799 26.18C302.799 26.7267 303.005 27.1533 303.419 27.46C303.845 27.7667 304.392 27.92 305.059 27.92ZM313.383 29V19.22H314.923V20.44H315.203C315.389 20.0933 315.696 19.7733 316.123 19.48C316.549 19.1867 317.149 19.04 317.923 19.04C318.683 19.04 319.296 19.2067 319.763 19.54C320.243 19.8733 320.589 20.28 320.803 20.76H321.083C321.309 20.28 321.649 19.8733 322.103 19.54C322.569 19.2067 323.216 19.04 324.043 19.04C324.696 19.04 325.269 19.1733 325.763 19.44C326.256 19.7067 326.643 20.0933 326.923 20.6C327.216 21.0933 327.363 21.6867 327.363 22.38V29H325.783V22.52C325.783 21.8667 325.589 21.3533 325.203 20.98C324.829 20.5933 324.303 20.4 323.623 20.4C322.903 20.4 322.309 20.6333 321.843 21.1C321.389 21.5667 321.163 22.24 321.163 23.12V29H319.583V22.52C319.583 21.8667 319.389 21.3533 319.003 20.98C318.629 20.5933 318.103 20.4 317.423 20.4C316.703 20.4 316.109 20.6333 315.643 21.1C315.189 21.5667 314.963 22.24 314.963 23.12V29H313.383ZM335.07 29.28C334.083 29.28 333.216 29.0733 332.47 28.66C331.723 28.2333 331.143 27.64 330.73 26.88C330.316 26.12 330.11 25.24 330.11 24.24V24C330.11 22.9867 330.316 22.1 330.73 21.34C331.143 20.58 331.716 19.9933 332.45 19.58C333.183 19.1533 334.023 18.94 334.97 18.94C335.89 18.94 336.703 19.14 337.41 19.54C338.116 19.9267 338.67 20.4867 339.07 21.22C339.47 21.9533 339.67 22.8133 339.67 23.8V24.52H331.69C331.73 25.5733 332.07 26.4 332.71 27C333.35 27.5867 334.15 27.88 335.11 27.88C335.95 27.88 336.596 27.6867 337.05 27.3C337.503 26.9133 337.85 26.4533 338.09 25.92L339.45 26.58C339.25 26.9933 338.97 27.4067 338.61 27.82C338.263 28.2333 337.803 28.58 337.23 28.86C336.67 29.14 335.95 29.28 335.07 29.28ZM331.71 23.22H338.07C338.016 22.3133 337.703 21.6067 337.13 21.1C336.57 20.5933 335.85 20.34 334.97 20.34C334.076 20.34 333.343 20.5933 332.77 21.1C332.196 21.6067 331.843 22.3133 331.71 23.22ZM347.562 29V19.22H349.142V29H347.562ZM348.362 17.7C348.016 17.7 347.722 17.5867 347.482 17.36C347.256 17.1333 347.142 16.8467 347.142 16.5C347.142 16.14 347.256 15.8467 347.482 15.62C347.722 15.3933 348.016 15.28 348.362 15.28C348.709 15.28 348.996 15.3933 349.222 15.62C349.449 15.8467 349.562 16.14 349.562 16.5C349.562 16.8467 349.449 17.1333 349.222 17.36C348.996 17.5867 348.709 17.7 348.362 17.7ZM356.405 29.28C355.191 29.28 354.165 29 353.325 28.44C352.498 27.88 351.998 26.9933 351.825 25.78L353.325 25.44C353.431 26.08 353.631 26.5867 353.925 26.96C354.218 27.32 354.578 27.58 355.005 27.74C355.445 27.8867 355.911 27.96 356.405 27.96C357.138 27.96 357.718 27.8133 358.145 27.52C358.571 27.2267 358.785 26.8333 358.785 26.34C358.785 25.8333 358.578 25.48 358.165 25.28C357.765 25.0667 357.211 24.8933 356.505 24.76L355.685 24.62C355.058 24.5133 354.485 24.3467 353.965 24.12C353.445 23.8933 353.031 23.5867 352.725 23.2C352.418 22.8133 352.265 22.3267 352.265 21.74C352.265 20.86 352.605 20.1733 353.285 19.68C353.965 19.1867 354.865 18.94 355.985 18.94C357.091 18.94 357.985 19.1933 358.665 19.7C359.358 20.1933 359.805 20.8933 360.005 21.8L358.525 22.18C358.405 21.4733 358.118 20.98 357.665 20.7C357.211 20.4067 356.651 20.26 355.985 20.26C355.318 20.26 354.791 20.3867 354.405 20.64C354.018 20.88 353.825 21.24 353.825 21.72C353.825 22.1867 354.005 22.5333 354.365 22.76C354.738 22.9733 355.231 23.1333 355.845 23.24L356.665 23.38C357.358 23.5 357.978 23.6667 358.525 23.88C359.085 24.08 359.525 24.3733 359.845 24.76C360.178 25.1467 360.345 25.6533 360.345 26.28C360.345 27.24 359.985 27.98 359.265 28.5C358.558 29.02 357.605 29.28 356.405 29.28Z" fill="#C9C9C9"/>
<path d="M246.992 83.344H243.6V104.784H247.76V106H226.96V104.784H231.12V62.416H226.96V61.2H246.288C251.835 61.2 255.76 61.4987 258.064 62.096C260.411 62.6507 262.053 63.3333 262.992 64.144C265.04 65.808 266.064 68.4533 266.064 72.08C266.064 75.7067 265.168 78.3093 263.376 79.888C261.584 81.424 258.853 82.3413 255.184 82.64V82.832C258.64 83.3013 261.051 84.3253 262.416 85.904C263.781 87.4827 264.464 90.128 264.464 93.84V97.232C264.464 99.4507 264.571 100.944 264.784 101.712C265.04 102.48 265.552 102.864 266.32 102.864C267.088 102.864 267.685 102.523 268.112 101.84C268.581 101.115 269.008 99.6213 269.392 97.36L270.48 97.488C270.011 101.115 269.179 103.547 267.984 104.784C266.832 106.021 264.507 106.64 261.008 106.64C257.509 106.64 255.013 105.829 253.52 104.208C252.069 102.544 251.344 99.4507 251.344 94.928V90.256C251.344 87.8667 251.024 86.1173 250.384 85.008C249.787 83.8987 248.656 83.344 246.992 83.344ZM243.6 62.416V82.128H245.648C248.08 82.128 249.872 81.3813 251.024 79.888C252.219 78.3947 252.816 75.9627 252.816 72.592V70.736C252.816 67.3653 252.24 65.1467 251.088 64.08C249.979 62.9707 248.187 62.416 245.712 62.416H243.6ZM288.66 106.64C283.156 106.64 279.017 105.232 276.244 102.416C273.513 99.5573 272.148 95.6107 272.148 90.576C272.148 85.4987 273.684 81.616 276.756 78.928C279.87 76.24 283.817 74.896 288.596 74.896C298.281 74.896 302.932 79.76 302.548 89.488H284.5V91.984C284.5 96.1653 285.033 99.3227 286.1 101.456C287.166 103.589 289.022 104.656 291.668 104.656C296.617 104.656 299.86 102.011 301.396 96.72L302.548 96.912C301.737 99.984 300.265 102.373 298.132 104.08C296.041 105.787 292.884 106.64 288.66 106.64ZM291.156 88.208V85.072C291.156 81.616 290.942 79.2693 290.516 78.032C290.132 76.752 289.321 76.112 288.083 76.112C286.889 76.112 285.993 76.7947 285.396 78.16C284.841 79.4827 284.564 81.7867 284.564 85.072V88.208H291.156ZM283.86 70.992L287.892 58.768L290.9 58.128C292.222 57.8293 293.225 58 293.908 58.64C294.633 59.2373 294.996 60.0693 294.996 61.136C294.996 62.16 294.377 63.2267 293.14 64.336L284.564 71.44L283.86 70.992ZM304.828 75.536H320.252V81.424C321.66 77.072 324.753 74.896 329.532 74.896C334.353 74.896 337.276 77.2 338.3 81.808C339.793 77.2 342.929 74.896 347.708 74.896C353.98 74.896 357.116 78.4587 357.116 85.584V104.848H360.7V106H342.972V104.848H345.212V84.048C345.212 80.8053 344.934 78.9067 344.38 78.352C344.124 78.096 343.782 77.968 343.356 77.968C342.118 77.968 341.03 78.8 340.092 80.464C339.153 82.128 338.684 84.24 338.684 86.8V104.848H340.988V106H324.54V104.848H326.78V84.048C326.78 80.8053 326.502 78.9067 325.948 78.352C325.692 78.096 325.35 77.968 324.924 77.968C323.729 77.968 322.641 78.8853 321.66 80.72C320.721 82.512 320.252 84.6667 320.252 87.184V104.848H322.556V106H304.828V104.848H308.348V76.688H304.828V75.536ZM371.048 71.12C368.787 71.12 367.165 70.544 366.184 69.392C365.245 68.24 364.776 66.8107 364.776 65.104C364.776 63.3973 365.288 61.9893 366.312 60.88C367.379 59.7707 368.979 59.216 371.112 59.216C373.245 59.216 374.867 59.728 375.976 60.752C377.085 61.7333 377.64 63.1627 377.64 65.04C377.64 66.8747 377.107 68.3467 376.04 69.456C374.973 70.5653 373.309 71.12 371.048 71.12ZM361.384 75.536H377.064V104.848H380.648V106H361.64V104.848H365.16V76.688H361.384V75.536ZM394.157 61.2H427.437L428.076 73.872H426.925C425.133 69.5627 423.255 66.6187 421.293 65.04C419.33 63.4187 416.45 62.608 412.653 62.608H410.413V82.384H412.589C414.594 82.384 416.279 81.6373 417.645 80.144C419.01 78.608 419.97 76.56 420.525 74H421.485V92.944H420.397C419.629 89.744 418.583 87.4613 417.261 86.096C415.981 84.7307 414.21 84.048 411.949 84.048H410.413V104.592H412.845C416.77 104.592 420.098 103.419 422.829 101.072C425.602 98.7253 427.501 95.7173 428.525 92.048H429.805L429.293 106H394.157V104.592H397.933V62.608H394.157V61.2ZM406.061 58.448L413.421 48.08L416.493 48.336C417.559 48.4213 418.327 48.7413 418.797 49.296C419.309 49.8507 419.565 50.4907 419.565 51.216C419.565 52.9227 418.626 54.16 416.749 54.928L406.573 59.088L406.061 58.448ZM456.75 88.784C456.75 84.3893 456.537 81.4453 456.11 79.952C455.683 78.416 454.851 77.648 453.614 77.648C452.377 77.648 451.267 78.4587 450.286 80.08C449.305 81.6587 448.814 83.792 448.814 86.48V98.192C448.814 100.027 449.177 101.584 449.902 102.864C450.627 104.144 451.694 104.784 453.102 104.784C454.51 104.784 455.47 103.845 455.982 101.968C456.494 100.091 456.75 96.8053 456.75 92.112V88.784ZM448.686 75.536V80.592C450.35 76.7947 453.294 74.896 457.518 74.896C461.187 74.896 464.025 76.2187 466.03 78.864C468.078 81.5093 469.102 85.52 469.102 90.896C469.102 96.272 467.993 100.24 465.774 102.8C463.598 105.36 460.313 106.64 455.918 106.64C453.87 106.64 452.334 106.384 451.31 105.872C450.286 105.36 449.454 104.571 448.814 103.504V120.08H457.07V121.232H433.39V120.08H436.91V76.688H433.518V75.536H448.686ZM486.375 90.96H488.231V86.032C488.231 81.9787 487.996 79.2693 487.527 77.904C487.1 76.496 486.247 75.792 484.967 75.792C484.199 75.792 483.495 76.0053 482.855 76.432C482.258 76.816 481.959 77.3707 481.959 78.096C481.959 78.7787 482.087 79.4827 482.343 80.208H483.943C484.284 81.104 484.455 82.192 484.455 83.472C484.455 84.7093 483.922 85.7973 482.855 86.736C481.788 87.632 480.444 88.08 478.823 88.08C475.154 88.08 473.319 86.3093 473.319 82.768C473.319 77.52 477.778 74.896 486.695 74.896C491.772 74.896 495.271 75.7707 497.191 77.52C499.154 79.2267 500.135 82.384 500.135 86.992V99.984C500.135 102.203 500.754 103.312 501.991 103.312C503.442 103.312 504.295 101.115 504.551 96.72L505.511 96.784C505.34 100.539 504.636 103.12 503.399 104.528C502.162 105.936 500.135 106.64 497.319 106.64C492.199 106.64 489.255 105.061 488.487 101.904C487.932 103.525 487.1 104.72 485.991 105.488C484.882 106.256 483.26 106.64 481.127 106.64C474.812 106.64 471.655 104.059 471.655 98.896C471.655 95.8667 472.85 93.7973 475.239 92.688C477.671 91.536 481.383 90.96 486.375 90.96ZM483.815 98.832C483.815 101.051 483.922 102.48 484.135 103.12C484.391 103.76 484.839 104.08 485.479 104.08C486.162 104.08 486.78 103.547 487.335 102.48C487.932 101.371 488.231 99.856 488.231 97.936V91.984H487.783C485.138 91.984 483.815 93.9253 483.815 97.808V98.832ZM542.955 106H528.363L527.659 101.328C526.976 103.035 525.952 104.357 524.587 105.296C523.264 106.192 521.28 106.64 518.635 106.64C512.022 106.64 508.715 103.077 508.715 95.952V76.688H505.131V75.536H520.619V97.488C520.619 100.048 520.79 101.733 521.131 102.544C521.515 103.355 522.24 103.76 523.307 103.76C524.416 103.76 525.398 103.099 526.251 101.776C527.104 100.453 527.531 98.6187 527.531 96.272V76.688H524.587V75.536H539.435V104.848H542.955V106ZM544.009 58H559.689V104.848H563.273V106H544.265V104.848H547.785V59.152H544.009V58ZM579.875 90.96H581.731V86.032C581.731 81.9787 581.496 79.2693 581.027 77.904C580.6 76.496 579.747 75.792 578.467 75.792C577.699 75.792 576.995 76.0053 576.355 76.432C575.758 76.816 575.459 77.3707 575.459 78.096C575.459 78.7787 575.587 79.4827 575.843 80.208H577.443C577.784 81.104 577.955 82.192 577.955 83.472C577.955 84.7093 577.422 85.7973 576.355 86.736C575.288 87.632 573.944 88.08 572.323 88.08C568.654 88.08 566.819 86.3093 566.819 82.768C566.819 77.52 571.278 74.896 580.195 74.896C585.272 74.896 588.771 75.7707 590.691 77.52C592.654 79.2267 593.635 82.384 593.635 86.992V99.984C593.635 102.203 594.254 103.312 595.491 103.312C596.942 103.312 597.795 101.115 598.051 96.72L599.011 96.784C598.84 100.539 598.136 103.12 596.899 104.528C595.662 105.936 593.635 106.64 590.819 106.64C585.699 106.64 582.755 105.061 581.987 101.904C581.432 103.525 580.6 104.72 579.491 105.488C578.382 106.256 576.76 106.64 574.627 106.64C568.312 106.64 565.155 104.059 565.155 98.896C565.155 95.8667 566.35 93.7973 568.739 92.688C571.171 91.536 574.883 90.96 579.875 90.96ZM577.315 98.832C577.315 101.051 577.422 102.48 577.635 103.12C577.891 103.76 578.339 104.08 578.979 104.08C579.662 104.08 580.28 103.547 580.835 102.48C581.432 101.371 581.731 99.856 581.731 97.936V91.984H581.283C578.638 91.984 577.315 93.9253 577.315 97.808V98.832ZM609.048 71.12C606.787 71.12 605.165 70.544 604.184 69.392C603.245 68.24 602.776 66.8107 602.776 65.104C602.776 63.3973 603.288 61.9893 604.312 60.88C605.379 59.7707 606.979 59.216 609.112 59.216C611.245 59.216 612.867 59.728 613.976 60.752C615.085 61.7333 615.64 63.1627 615.64 65.04C615.64 66.8747 615.107 68.3467 614.04 69.456C612.973 70.5653 611.309 71.12 609.048 71.12ZM599.384 75.536H615.064V104.848H618.648V106H599.64V104.848H603.16V76.688H599.384V75.536ZM621.424 106.64V95.184H622.193C623.302 98.896 624.795 101.499 626.673 102.992C628.55 104.485 630.897 105.232 633.713 105.232C638.065 105.232 640.241 103.845 640.241 101.072C640.241 99.8773 639.707 98.9813 638.641 98.384C636.977 97.4453 634.843 96.72 632.241 96.208C629.339 95.44 626.907 94.416 624.945 93.136C622.598 91.6 621.424 89.168 621.424 85.84C621.424 82.512 622.448 79.8667 624.497 77.904C626.545 75.8987 629.275 74.896 632.689 74.896C634.779 74.896 636.934 75.3867 639.153 76.368C639.963 76.7093 640.582 76.88 641.009 76.88C641.435 76.88 641.798 76.7307 642.097 76.432C642.395 76.1333 642.758 75.5787 643.185 74.768H643.889V84.56H643.121C640.945 79.0133 637.574 76.24 633.009 76.24C631.003 76.24 629.51 76.6027 628.529 77.328C627.547 78.0107 627.057 78.8853 627.057 79.952C627.057 80.592 627.206 81.104 627.505 81.488C627.803 81.8293 628.038 82.0853 628.209 82.256C628.379 82.4267 628.657 82.6187 629.041 82.832C629.425 83.0027 629.745 83.152 630.001 83.28C630.257 83.3653 630.641 83.4933 631.153 83.664C631.707 83.8347 632.113 83.9413 632.369 83.984C635.27 84.7093 637.361 85.3493 638.641 85.904C639.921 86.416 641.137 87.056 642.289 87.824C644.635 89.4453 645.809 92.0693 645.809 95.696C645.809 99.28 644.742 102.011 642.609 103.888C640.475 105.723 637.553 106.64 633.841 106.64C631.195 106.64 628.635 106.021 626.161 104.784C625.649 104.443 625.243 104.272 624.945 104.272C624.006 104.272 623.089 105.061 622.193 106.64H621.424Z" fill="white"/>
<path d="M227.344 193.2H260.624L261.264 206.512H260.112C258.533 201.904 256.699 198.768 254.608 197.104C252.56 195.44 249.488 194.608 245.392 194.608H243.6V215.408H246.48C248.528 215.408 250.235 214.661 251.6 213.168C252.965 211.675 253.904 209.627 254.416 207.024H255.376V225.968H254.288C253.605 222.768 252.645 220.485 251.408 219.12C250.213 217.755 248.571 217.072 246.48 217.072H243.6V236.592H251.536V238H227.344V236.592H231.12V194.608H227.344V193.2ZM284.641 209.328C283.062 209.328 281.676 210.352 280.481 212.4C279.286 214.448 278.689 216.88 278.689 219.696V236.848H283.233V238H263.265V236.848H266.785V208.688H263.265V207.536H278.689V213.68C279.244 211.504 280.31 209.84 281.889 208.688C283.468 207.493 285.26 206.896 287.265 206.896C289.27 206.896 290.892 207.472 292.129 208.624C293.409 209.733 294.049 211.333 294.049 213.424C294.049 215.472 293.58 217.051 292.641 218.16C291.702 219.269 290.252 219.824 288.289 219.824C286.369 219.824 284.94 219.184 284.001 217.904C283.105 216.624 282.998 214.853 283.681 212.592H285.985C287.052 210.416 286.604 209.328 284.641 209.328ZM315.312 225.392V219.952C315.312 215.813 315.077 212.805 314.608 210.928C314.181 209.008 313.157 208.048 311.536 208.048C310.597 208.048 309.829 208.325 309.232 208.88C308.677 209.392 308.272 210.267 308.016 211.504C307.632 213.424 307.44 216.347 307.44 220.272V225.264C307.44 229.915 307.568 232.709 307.824 233.648C308.123 234.587 308.421 235.355 308.72 235.952C309.189 236.976 310.107 237.488 311.472 237.488C313.136 237.488 314.224 236.528 314.736 234.608C315.12 233.243 315.312 230.171 315.312 225.392ZM311.344 238.64C306.011 238.64 301.979 237.275 299.248 234.544C296.517 231.813 295.152 227.909 295.152 222.832C295.152 217.712 296.603 213.787 299.504 211.056C302.448 208.283 306.565 206.896 311.856 206.896C317.147 206.896 321.093 208.176 323.696 210.736C326.299 213.253 327.6 217.115 327.6 222.32C327.6 233.2 322.181 238.64 311.344 238.64ZM329.518 207.536H344.942V213.424C345.625 211.461 346.67 209.883 348.078 208.688C349.486 207.493 351.619 206.896 354.478 206.896C361.091 206.896 364.398 210.459 364.398 217.584V236.848H367.982V238H349.87V236.848H352.494V216.048C352.494 213.488 352.323 211.845 351.982 211.12C351.641 210.352 351.022 209.968 350.126 209.968C348.761 209.968 347.545 210.864 346.478 212.656C345.454 214.448 344.942 216.624 344.942 219.184V236.848H347.694V238H329.518V236.848H333.038V208.688H329.518V207.536ZM371.715 228.848V208.688H368.195V207.536H371.715V199.28L383.619 196.336V207.536H391.939V208.688H383.619V230.256C383.619 232.261 383.811 233.733 384.195 234.672C384.622 235.611 385.475 236.08 386.755 236.08C388.035 236.08 389.144 235.44 390.083 234.16C391.064 232.88 391.704 231.131 392.003 228.912L393.091 229.04C392.75 231.984 391.811 234.331 390.275 236.08C388.739 237.787 386.2 238.64 382.659 238.64C379.118 238.64 376.408 237.936 374.531 236.528C372.654 235.12 371.715 232.56 371.715 228.848ZM422.035 238.64C416.531 238.64 412.392 237.232 409.619 234.416C406.888 231.557 405.523 227.611 405.523 222.576C405.523 217.499 407.059 213.616 410.131 210.928C413.245 208.24 417.192 206.896 421.971 206.896C431.656 206.896 436.307 211.76 435.923 221.488H417.875V223.984C417.875 228.165 418.408 231.323 419.475 233.456C420.541 235.589 422.397 236.656 425.043 236.656C429.992 236.656 433.235 234.011 434.771 228.72L435.923 228.912C435.112 231.984 433.64 234.373 431.507 236.08C429.416 237.787 426.259 238.64 422.035 238.64ZM417.939 220.208H424.531V217.072C424.531 213.616 424.317 211.269 423.891 210.032C423.507 208.752 422.696 208.112 421.458 208.112C420.264 208.112 419.368 208.795 418.771 210.16C418.216 211.483 417.939 213.787 417.939 217.072V220.208ZM438.331 207.536H453.755V213.424C454.437 211.461 455.483 209.883 456.891 208.688C458.299 207.493 460.432 206.896 463.291 206.896C469.904 206.896 473.211 210.459 473.211 217.584V236.848H476.795V238H458.683V236.848H461.307V216.048C461.307 213.488 461.136 211.845 460.795 211.12C460.453 210.352 459.835 209.968 458.939 209.968C457.573 209.968 456.357 210.864 455.291 212.656C454.267 214.448 453.755 216.624 453.755 219.184V236.848H456.507V238H438.331V236.848H441.851V208.688H438.331V207.536ZM490.632 224.752C490.632 229.232 490.867 232.219 491.336 233.712C491.805 235.163 492.659 235.888 493.896 235.888C495.176 235.888 496.264 235.333 497.16 234.224C498.099 233.115 498.568 231.472 498.568 229.296V215.344C498.568 213.509 498.205 211.952 497.48 210.672C496.755 209.392 495.688 208.752 494.28 208.752C492.872 208.752 491.912 209.691 491.4 211.568C490.888 213.445 490.632 216.731 490.632 221.424V224.752ZM499.4 238L498.696 233.52C497.245 236.933 494.301 238.64 489.864 238.64C486.195 238.64 483.336 237.317 481.288 234.672C479.283 232.027 478.28 228.08 478.28 222.832C478.28 212.208 482.504 206.896 490.952 206.896C494.707 206.896 497.181 207.941 498.376 210.032V191.152H494.472V190H510.472V236.848H513.608V238H499.4ZM571.821 214.832C571.821 223.621 569.346 229.744 564.397 233.2C559.832 236.4 553.56 238 545.581 238H527.469V236.784H531.693V194.416H527.469V193.2H547.245C555.437 193.2 561.581 194.885 565.677 198.256C569.773 201.584 571.821 207.109 571.821 214.832ZM544.173 236.784H546.605C550.914 236.784 553.986 235.269 555.821 232.24C557.698 229.168 558.637 224.048 558.637 216.88V213.168C558.637 203.568 556.802 197.787 553.133 195.824C551.384 194.885 548.909 194.416 545.709 194.416H544.173V236.784ZM591.91 238.64C586.406 238.64 582.267 237.232 579.494 234.416C576.763 231.557 575.398 227.611 575.398 222.576C575.398 217.499 576.934 213.616 580.006 210.928C583.12 208.24 587.067 206.896 591.846 206.896C601.531 206.896 606.182 211.76 605.798 221.488H587.75V223.984C587.75 228.165 588.283 231.323 589.35 233.456C590.416 235.589 592.272 236.656 594.918 236.656C599.867 236.656 603.11 234.011 604.646 228.72L605.798 228.912C604.987 231.984 603.515 234.373 601.382 236.08C599.291 237.787 596.134 238.64 591.91 238.64ZM587.814 220.208H594.406V217.072C594.406 213.616 594.192 211.269 593.766 210.032C593.382 208.752 592.571 208.112 591.333 208.112C590.139 208.112 589.243 208.795 588.646 210.16C588.091 211.483 587.814 213.787 587.814 217.072V220.208ZM605.812 208.688V207.536H624.949V208.688H620.917L628.597 229.936L635.509 208.688H631.221V207.536H639.861V208.688H637.045L627.573 238H620.277L608.437 208.688H605.812ZM655.722 238.64C650.218 238.64 646.079 237.232 643.306 234.416C640.575 231.557 639.21 227.611 639.21 222.576C639.21 217.499 640.746 213.616 643.818 210.928C646.933 208.24 650.879 206.896 655.658 206.896C665.343 206.896 669.994 211.76 669.61 221.488H651.562V223.984C651.562 228.165 652.095 231.323 653.162 233.456C654.229 235.589 656.085 236.656 658.73 236.656C663.679 236.656 666.922 234.011 668.458 228.72L669.61 228.912C668.799 231.984 667.327 234.373 665.194 236.08C663.103 237.787 659.946 238.64 655.722 238.64ZM651.626 220.208H658.218V217.072C658.218 213.616 658.005 211.269 657.578 210.032C657.194 208.752 656.383 208.112 655.146 208.112C653.951 208.112 653.055 208.795 652.458 210.16C651.903 211.483 651.626 213.787 651.626 217.072V220.208ZM671.634 190H687.314V236.848H690.898V238H671.89V236.848H675.41V191.152H671.634V190ZM712.812 225.392V219.952C712.812 215.813 712.577 212.805 712.108 210.928C711.681 209.008 710.657 208.048 709.036 208.048C708.097 208.048 707.329 208.325 706.732 208.88C706.177 209.392 705.772 210.267 705.516 211.504C705.132 213.424 704.94 216.347 704.94 220.272V225.264C704.94 229.915 705.068 232.709 705.324 233.648C705.623 234.587 705.921 235.355 706.22 235.952C706.689 236.976 707.607 237.488 708.972 237.488C710.636 237.488 711.724 236.528 712.236 234.608C712.62 233.243 712.812 230.171 712.812 225.392ZM708.844 238.64C703.511 238.64 699.479 237.275 696.748 234.544C694.017 231.813 692.652 227.909 692.652 222.832C692.652 217.712 694.103 213.787 697.004 211.056C699.948 208.283 704.065 206.896 709.356 206.896C714.647 206.896 718.593 208.176 721.196 210.736C723.799 213.253 725.1 217.115 725.1 222.32C725.1 233.2 719.681 238.64 708.844 238.64ZM750.25 220.784C750.25 216.389 750.037 213.445 749.61 211.952C749.183 210.416 748.351 209.648 747.114 209.648C745.877 209.648 744.767 210.459 743.786 212.08C742.805 213.659 742.314 215.792 742.314 218.48V230.192C742.314 232.027 742.677 233.584 743.402 234.864C744.127 236.144 745.194 236.784 746.602 236.784C748.01 236.784 748.97 235.845 749.482 233.968C749.994 232.091 750.25 228.805 750.25 224.112V220.784ZM742.186 207.536V212.592C743.85 208.795 746.794 206.896 751.018 206.896C754.687 206.896 757.525 208.219 759.53 210.864C761.578 213.509 762.602 217.52 762.602 222.896C762.602 228.272 761.493 232.24 759.274 234.8C757.098 237.36 753.813 238.64 749.418 238.64C747.37 238.64 745.834 238.384 744.81 237.872C743.786 237.36 742.954 236.571 742.314 235.504V252.08H750.57V253.232H726.89V252.08H730.41V208.688H727.018V207.536H742.186ZM781.347 238.64C775.843 238.64 771.704 237.232 768.931 234.416C766.2 231.557 764.835 227.611 764.835 222.576C764.835 217.499 766.371 213.616 769.443 210.928C772.558 208.24 776.504 206.896 781.283 206.896C790.968 206.896 795.619 211.76 795.235 221.488H777.187V223.984C777.187 228.165 777.72 231.323 778.787 233.456C779.854 235.589 781.71 236.656 784.355 236.656C789.304 236.656 792.547 234.011 794.083 228.72L795.235 228.912C794.424 231.984 792.952 234.373 790.819 236.08C788.728 237.787 785.571 238.64 781.347 238.64ZM777.251 220.208H783.843V217.072C783.843 213.616 783.63 211.269 783.203 210.032C782.819 208.752 782.008 208.112 780.771 208.112C779.576 208.112 778.68 208.795 778.083 210.16C777.528 211.483 777.251 213.787 777.251 217.072V220.208ZM818.891 209.328C817.312 209.328 815.926 210.352 814.731 212.4C813.536 214.448 812.939 216.88 812.939 219.696V236.848H817.483V238H797.515V236.848H801.035V208.688H797.515V207.536H812.939V213.68C813.494 211.504 814.56 209.84 816.139 208.688C817.718 207.493 819.51 206.896 821.515 206.896C823.52 206.896 825.142 207.472 826.379 208.624C827.659 209.733 828.299 211.333 828.299 213.424C828.299 215.472 827.83 217.051 826.891 218.16C825.952 219.269 824.502 219.824 822.539 219.824C820.619 219.824 819.19 219.184 818.251 217.904C817.355 216.624 817.248 214.853 817.931 212.592H820.235C821.302 210.416 820.854 209.328 818.891 209.328Z" fill="white"/>
<path d="M230.66 169.28C229.98 169.28 229.36 169.16 228.8 168.92C228.24 168.68 227.8 168.333 227.48 167.88C227.16 167.427 227 166.873 227 166.22C227 165.553 227.16 165.007 227.48 164.58C227.8 164.14 228.24 163.813 228.8 163.6C229.36 163.373 229.987 163.26 230.68 163.26H233.98V162.54C233.98 161.847 233.773 161.3 233.36 160.9C232.96 160.5 232.36 160.3 231.56 160.3C230.773 160.3 230.16 160.493 229.72 160.88C229.28 161.253 228.98 161.76 228.82 162.4L227.34 161.92C227.5 161.373 227.753 160.88 228.1 160.44C228.447 159.987 228.907 159.627 229.48 159.36C230.067 159.08 230.767 158.94 231.58 158.94C232.833 158.94 233.807 159.267 234.5 159.92C235.193 160.56 235.54 161.467 235.54 162.64V167.06C235.54 167.46 235.727 167.66 236.1 167.66H237V169H235.62C235.18 169 234.827 168.88 234.56 168.64C234.293 168.387 234.16 168.053 234.16 167.64V167.54H233.92C233.773 167.793 233.573 168.06 233.32 168.34C233.08 168.607 232.747 168.827 232.32 169C231.893 169.187 231.34 169.28 230.66 169.28ZM230.84 167.92C231.773 167.92 232.527 167.647 233.1 167.1C233.687 166.54 233.98 165.76 233.98 164.76V164.54H230.74C230.113 164.54 229.593 164.68 229.18 164.96C228.78 165.227 228.58 165.633 228.58 166.18C228.58 166.727 228.787 167.153 229.2 167.46C229.627 167.767 230.173 167.92 230.84 167.92ZM239.164 169V159.22H240.704V160.88H240.984C241.197 160.413 241.557 159.993 242.064 159.62C242.584 159.233 243.344 159.04 244.344 159.04C245.077 159.04 245.731 159.193 246.304 159.5C246.891 159.807 247.357 160.26 247.704 160.86C248.051 161.46 248.224 162.2 248.224 163.08V169H246.644V163.2C246.644 162.227 246.397 161.52 245.904 161.08C245.424 160.64 244.771 160.42 243.944 160.42C242.997 160.42 242.224 160.727 241.624 161.34C241.037 161.953 240.744 162.867 240.744 164.08V169H239.164ZM255.57 169.28C254.73 169.28 253.956 169.08 253.25 168.68C252.543 168.28 251.983 167.7 251.57 166.94C251.156 166.18 250.95 165.28 250.95 164.24V163.98C250.95 162.94 251.156 162.047 251.57 161.3C251.983 160.54 252.536 159.96 253.23 159.56C253.936 159.147 254.716 158.94 255.57 158.94C256.25 158.94 256.823 159.033 257.29 159.22C257.77 159.393 258.156 159.62 258.45 159.9C258.743 160.167 258.97 160.453 259.13 160.76H259.41V155H260.99V169H259.45V167.38H259.17C258.903 167.873 258.49 168.313 257.93 168.7C257.37 169.087 256.583 169.28 255.57 169.28ZM255.99 167.88C257.003 167.88 257.823 167.56 258.45 166.92C259.09 166.267 259.41 165.36 259.41 164.2V164.02C259.41 162.86 259.09 161.96 258.45 161.32C257.823 160.667 257.003 160.34 255.99 160.34C254.99 160.34 254.163 160.667 253.51 161.32C252.87 161.96 252.55 162.86 252.55 164.02V164.2C252.55 165.36 252.87 166.267 253.51 166.92C254.163 167.56 254.99 167.88 255.99 167.88ZM269.377 169V155H271.057V169H269.377ZM282.457 169.28C281.777 169.28 281.157 169.16 280.597 168.92C280.037 168.68 279.597 168.333 279.277 167.88C278.957 167.427 278.797 166.873 278.797 166.22C278.797 165.553 278.957 165.007 279.277 164.58C279.597 164.14 280.037 163.813 280.597 163.6C281.157 163.373 281.784 163.26 282.477 163.26H285.777V162.54C285.777 161.847 285.57 161.3 285.157 160.9C284.757 160.5 284.157 160.3 283.357 160.3C282.57 160.3 281.957 160.493 281.517 160.88C281.077 161.253 280.777 161.76 280.617 162.4L279.137 161.92C279.297 161.373 279.55 160.88 279.897 160.44C280.244 159.987 280.704 159.627 281.277 159.36C281.864 159.08 282.564 158.94 283.377 158.94C284.63 158.94 285.604 159.267 286.297 159.92C286.99 160.56 287.337 161.467 287.337 162.64V167.06C287.337 167.46 287.524 167.66 287.897 167.66H288.797V169H287.417C286.977 169 286.624 168.88 286.357 168.64C286.09 168.387 285.957 168.053 285.957 167.64V167.54H285.717C285.57 167.793 285.37 168.06 285.117 168.34C284.877 168.607 284.544 168.827 284.117 169C283.69 169.187 283.137 169.28 282.457 169.28ZM282.637 167.92C283.57 167.92 284.324 167.647 284.897 167.1C285.484 166.54 285.777 165.76 285.777 164.76V164.54H282.537C281.91 164.54 281.39 164.68 280.977 164.96C280.577 165.227 280.377 165.633 280.377 166.18C280.377 166.727 280.584 167.153 280.997 167.46C281.424 167.767 281.97 167.92 282.637 167.92ZM290.961 169V159.22H292.501V160.44H292.781C292.967 160.093 293.274 159.773 293.701 159.48C294.127 159.187 294.727 159.04 295.501 159.04C296.261 159.04 296.874 159.207 297.341 159.54C297.821 159.873 298.167 160.28 298.381 160.76H298.661C298.887 160.28 299.227 159.873 299.681 159.54C300.147 159.207 300.794 159.04 301.621 159.04C302.274 159.04 302.847 159.173 303.341 159.44C303.834 159.707 304.221 160.093 304.501 160.6C304.794 161.093 304.941 161.687 304.941 162.38V169H303.361V162.52C303.361 161.867 303.167 161.353 302.781 160.98C302.407 160.593 301.881 160.4 301.201 160.4C300.481 160.4 299.887 160.633 299.421 161.1C298.967 161.567 298.741 162.24 298.741 163.12V169H297.161V162.52C297.161 161.867 296.967 161.353 296.581 160.98C296.207 160.593 295.681 160.4 295.001 160.4C294.281 160.4 293.687 160.633 293.221 161.1C292.767 161.567 292.541 162.24 292.541 163.12V169H290.961ZM316.305 169.28C315.625 169.28 315.005 169.16 314.445 168.92C313.885 168.68 313.445 168.333 313.125 167.88C312.805 167.427 312.645 166.873 312.645 166.22C312.645 165.553 312.805 165.007 313.125 164.58C313.445 164.14 313.885 163.813 314.445 163.6C315.005 163.373 315.631 163.26 316.325 163.26H319.625V162.54C319.625 161.847 319.418 161.3 319.005 160.9C318.605 160.5 318.005 160.3 317.205 160.3C316.418 160.3 315.805 160.493 315.365 160.88C314.925 161.253 314.625 161.76 314.465 162.4L312.985 161.92C313.145 161.373 313.398 160.88 313.745 160.44C314.091 159.987 314.551 159.627 315.125 159.36C315.711 159.08 316.411 158.94 317.225 158.94C318.478 158.94 319.451 159.267 320.145 159.92C320.838 160.56 321.185 161.467 321.185 162.64V167.06C321.185 167.46 321.371 167.66 321.745 167.66H322.645V169H321.265C320.825 169 320.471 168.88 320.205 168.64C319.938 168.387 319.805 168.053 319.805 167.64V167.54H319.565C319.418 167.793 319.218 168.06 318.965 168.34C318.725 168.607 318.391 168.827 317.965 169C317.538 169.187 316.985 169.28 316.305 169.28ZM316.485 167.92C317.418 167.92 318.171 167.647 318.745 167.1C319.331 166.54 319.625 165.76 319.625 164.76V164.54H316.385C315.758 164.54 315.238 164.68 314.825 164.96C314.425 165.227 314.225 165.633 314.225 166.18C314.225 166.727 314.431 167.153 314.845 167.46C315.271 167.767 315.818 167.92 316.485 167.92ZM325.668 169.28C325.282 169.28 324.955 169.153 324.688 168.9C324.435 168.647 324.308 168.32 324.308 167.92C324.308 167.52 324.435 167.193 324.688 166.94C324.955 166.687 325.282 166.56 325.668 166.56C326.068 166.56 326.395 166.687 326.648 166.94C326.902 167.193 327.028 167.52 327.028 167.92C327.028 168.32 326.902 168.647 326.648 168.9C326.395 169.153 326.068 169.28 325.668 169.28ZM330.727 169.28C330.34 169.28 330.014 169.153 329.747 168.9C329.494 168.647 329.367 168.32 329.367 167.92C329.367 167.52 329.494 167.193 329.747 166.94C330.014 166.687 330.34 166.56 330.727 166.56C331.127 166.56 331.454 166.687 331.707 166.94C331.96 167.193 332.087 167.52 332.087 167.92C332.087 168.32 331.96 168.647 331.707 168.9C331.454 169.153 331.127 169.28 330.727 169.28ZM335.786 169.28C335.399 169.28 335.072 169.153 334.806 168.9C334.552 168.647 334.426 168.32 334.426 167.92C334.426 167.52 334.552 167.193 334.806 166.94C335.072 166.687 335.399 166.56 335.786 166.56C336.186 166.56 336.512 166.687 336.766 166.94C337.019 167.193 337.146 167.52 337.146 167.92C337.146 168.32 337.019 168.647 336.766 168.9C336.512 169.153 336.186 169.28 335.786 169.28Z" fill="#C9C9C9"/>
<circle cx="39.5" cy="38.5" r="6.5" fill="#BFBFFF"/>
<circle cx="78.5" cy="38.5" r="6.5" fill="#BFBFFF"/>
<circle cx="98.5" cy="38.5" r="6.5" fill="#BFBFFF"/>
<rect x="-181.293" y="-18.6033" width="1476" height="303" rx="151.5" transform="rotate(-45 -181.293 -18.6033)" stroke="#BFBFFF"/>
</g>
<defs>
<clipPath id="clip0_23_2">
<rect width="1400" height="270" fill="white"/>
</clipPath>
</defs>
</svg>
