<svg width="769" height="123" viewBox="0 0 769 123" fill="none" xmlns="http://www.w3.org/2000/svg">
<path d="M17.6 20V6H19.28V12.22H25.84V6H27.52V20H25.84V13.74H19.28V20H17.6ZM34.165 20V7.52H29.665V6H40.345V7.52H35.845V20H34.165ZM42.4828 20V6H45.6828L49.4028 18.94H49.6628L53.3828 6H56.5828V20H54.9628V7.1H54.6828L50.9828 20H48.0828L44.3828 7.1H44.1028V20H42.4828ZM59.7875 20V6H61.4675V18.48H68.5475V20H59.7875Z" fill="white"/>
<path d="M130.66 20.28C128.993 20.28 127.667 19.8 126.68 18.84C125.693 17.8667 125.2 16.4533 125.2 14.6V11.4C125.2 9.54667 125.693 8.14 126.68 7.18C127.667 6.20667 128.993 5.72 130.66 5.72C132.313 5.72 133.58 6.18 134.46 7.1C135.353 8.02 135.8 9.28 135.8 10.88V10.98H134.14V10.82C134.14 9.76667 133.853 8.90667 133.28 8.24C132.72 7.56 131.847 7.22 130.66 7.22C129.473 7.22 128.547 7.58667 127.88 8.32C127.213 9.04 126.88 10.0533 126.88 11.36V14.64C126.88 15.9467 127.213 16.9667 127.88 17.7C128.547 18.42 129.473 18.78 130.66 18.78C131.847 18.78 132.72 18.4467 133.28 17.78C133.853 17.1 134.14 16.2333 134.14 15.18V14.86H135.8V15.12C135.8 16.72 135.353 17.98 134.46 18.9C133.58 19.82 132.313 20.28 130.66 20.28ZM143.092 20.28C142.079 20.28 141.172 20.1 140.372 19.74C139.572 19.38 138.939 18.84 138.472 18.12C138.019 17.3867 137.792 16.4733 137.792 15.38V14.96H139.452V15.38C139.452 16.54 139.792 17.4067 140.472 17.98C141.152 18.54 142.025 18.82 143.092 18.82C144.185 18.82 145.019 18.5733 145.592 18.08C146.165 17.5867 146.452 16.9667 146.452 16.22C146.452 15.7 146.319 15.2867 146.052 14.98C145.799 14.6733 145.439 14.4267 144.972 14.24C144.505 14.04 143.959 13.8667 143.332 13.72L142.292 13.46C141.479 13.2467 140.759 12.9867 140.132 12.68C139.505 12.3733 139.012 11.9733 138.652 11.48C138.305 10.9733 138.132 10.3267 138.132 9.54C138.132 8.75333 138.325 8.07333 138.712 7.5C139.112 6.92667 139.665 6.48667 140.372 6.18C141.092 5.87333 141.919 5.72 142.852 5.72C143.799 5.72 144.645 5.88667 145.392 6.22C146.152 6.54 146.745 7.02 147.172 7.66C147.612 8.28667 147.832 9.08 147.832 10.04V10.88H146.172V10.04C146.172 9.36 146.025 8.81333 145.732 8.4C145.452 7.98667 145.059 7.68 144.552 7.48C144.059 7.28 143.492 7.18 142.852 7.18C141.932 7.18 141.192 7.38667 140.632 7.8C140.072 8.2 139.792 8.77333 139.792 9.52C139.792 10.0133 139.912 10.4133 140.152 10.72C140.392 11.0267 140.732 11.28 141.172 11.48C141.612 11.6667 142.139 11.8333 142.752 11.98L143.792 12.24C144.605 12.4133 145.332 12.6533 145.972 12.96C146.625 13.2533 147.145 13.66 147.532 14.18C147.919 14.6867 148.112 15.3533 148.112 16.18C148.112 17.0067 147.905 17.7267 147.492 18.34C147.079 18.9533 146.492 19.4333 145.732 19.78C144.985 20.1133 144.105 20.28 143.092 20.28ZM155.358 20.28C154.344 20.28 153.438 20.1 152.638 19.74C151.838 19.38 151.204 18.84 150.738 18.12C150.284 17.3867 150.058 16.4733 150.058 15.38V14.96H151.718V15.38C151.718 16.54 152.058 17.4067 152.738 17.98C153.418 18.54 154.291 18.82 155.358 18.82C156.451 18.82 157.284 18.5733 157.858 18.08C158.431 17.5867 158.718 16.9667 158.718 16.22C158.718 15.7 158.584 15.2867 158.318 14.98C158.064 14.6733 157.704 14.4267 157.238 14.24C156.771 14.04 156.224 13.8667 155.598 13.72L154.558 13.46C153.744 13.2467 153.024 12.9867 152.398 12.68C151.771 12.3733 151.278 11.9733 150.918 11.48C150.571 10.9733 150.398 10.3267 150.398 9.54C150.398 8.75333 150.591 8.07333 150.978 7.5C151.378 6.92667 151.931 6.48667 152.638 6.18C153.358 5.87333 154.184 5.72 155.118 5.72C156.064 5.72 156.911 5.88667 157.658 6.22C158.418 6.54 159.011 7.02 159.438 7.66C159.878 8.28667 160.098 9.08 160.098 10.04V10.88H158.438V10.04C158.438 9.36 158.291 8.81333 157.998 8.4C157.718 7.98667 157.324 7.68 156.818 7.48C156.324 7.28 155.758 7.18 155.118 7.18C154.198 7.18 153.458 7.38667 152.898 7.8C152.338 8.2 152.058 8.77333 152.058 9.52C152.058 10.0133 152.178 10.4133 152.418 10.72C152.658 11.0267 152.998 11.28 153.438 11.48C153.878 11.6667 154.404 11.8333 155.018 11.98L156.058 12.24C156.871 12.4133 157.598 12.6533 158.238 12.96C158.891 13.2533 159.411 13.66 159.798 14.18C160.184 14.6867 160.378 15.3533 160.378 16.18C160.378 17.0067 160.171 17.7267 159.758 18.34C159.344 18.9533 158.758 19.4333 157.998 19.78C157.251 20.1133 156.371 20.28 155.358 20.28Z" fill="white"/>
<path d="M221.26 20.28C219.887 20.28 218.8 19.8933 218 19.12C217.213 18.3467 216.82 17.24 216.82 15.8V14.72H218.48V15.8C218.48 16.6667 218.707 17.3733 219.16 17.92C219.627 18.4667 220.32 18.74 221.24 18.74C222.173 18.74 222.833 18.4733 223.22 17.94C223.607 17.3933 223.8 16.68 223.8 15.8V7.52H221.34V6H227V7.52H225.48V15.8C225.48 17.2533 225.12 18.3667 224.4 19.14C223.68 19.9 222.633 20.28 221.26 20.28ZM234.135 20.28C233.122 20.28 232.215 20.1 231.415 19.74C230.615 19.38 229.982 18.84 229.515 18.12C229.062 17.3867 228.835 16.4733 228.835 15.38V14.96H230.495V15.38C230.495 16.54 230.835 17.4067 231.515 17.98C232.195 18.54 233.068 18.82 234.135 18.82C235.228 18.82 236.062 18.5733 236.635 18.08C237.208 17.5867 237.495 16.9667 237.495 16.22C237.495 15.7 237.362 15.2867 237.095 14.98C236.842 14.6733 236.482 14.4267 236.015 14.24C235.548 14.04 235.002 13.8667 234.375 13.72L233.335 13.46C232.522 13.2467 231.802 12.9867 231.175 12.68C230.548 12.3733 230.055 11.9733 229.695 11.48C229.348 10.9733 229.175 10.3267 229.175 9.54C229.175 8.75333 229.368 8.07333 229.755 7.5C230.155 6.92667 230.708 6.48667 231.415 6.18C232.135 5.87333 232.962 5.72 233.895 5.72C234.842 5.72 235.688 5.88667 236.435 6.22C237.195 6.54 237.788 7.02 238.215 7.66C238.655 8.28667 238.875 9.08 238.875 10.04V10.88H237.215V10.04C237.215 9.36 237.068 8.81333 236.775 8.4C236.495 7.98667 236.102 7.68 235.595 7.48C235.102 7.28 234.535 7.18 233.895 7.18C232.975 7.18 232.235 7.38667 231.675 7.8C231.115 8.2 230.835 8.77333 230.835 9.52C230.835 10.0133 230.955 10.4133 231.195 10.72C231.435 11.0267 231.775 11.28 232.215 11.48C232.655 11.6667 233.182 11.8333 233.795 11.98L234.835 12.24C235.648 12.4133 236.375 12.6533 237.015 12.96C237.668 13.2533 238.188 13.66 238.575 14.18C238.962 14.6867 239.155 15.3533 239.155 16.18C239.155 17.0067 238.948 17.7267 238.535 18.34C238.122 18.9533 237.535 19.4333 236.775 19.78C236.028 20.1133 235.148 20.28 234.135 20.28ZM246.301 20.28C245.354 20.28 244.501 20.08 243.741 19.68C242.994 19.2667 242.401 18.68 241.961 17.92C241.534 17.16 241.321 16.26 241.321 15.22V15C241.321 13.9467 241.534 13.0467 241.961 12.3C242.401 11.54 242.994 10.96 243.741 10.56C244.501 10.1467 245.354 9.94 246.301 9.94C247.234 9.94 248.027 10.1133 248.681 10.46C249.347 10.8067 249.867 11.2667 250.241 11.84C250.627 12.4133 250.874 13.0267 250.981 13.68L249.441 14C249.374 13.52 249.214 13.08 248.961 12.68C248.721 12.28 248.381 11.96 247.941 11.72C247.501 11.48 246.961 11.36 246.321 11.36C245.667 11.36 245.081 11.5067 244.561 11.8C244.054 12.0933 243.647 12.5133 243.341 13.06C243.047 13.6067 242.901 14.26 242.901 15.02V15.2C242.901 15.96 243.047 16.6133 243.341 17.16C243.647 17.7067 244.054 18.1267 244.561 18.42C245.081 18.7133 245.667 18.86 246.321 18.86C247.294 18.86 248.034 18.6067 248.541 18.1C249.061 17.5933 249.381 16.9667 249.501 16.22L251.061 16.56C250.914 17.2 250.647 17.8067 250.261 18.38C249.874 18.9533 249.347 19.4133 248.681 19.76C248.027 20.1067 247.234 20.28 246.301 20.28ZM253.754 20V10.22H255.294V11.42H255.574C255.747 10.9933 256.014 10.68 256.374 10.48C256.734 10.28 257.207 10.18 257.794 10.18H258.954V11.62H257.694C256.987 11.62 256.414 11.82 255.974 12.22C255.547 12.6067 255.334 13.2133 255.334 14.04V20H253.754ZM261.293 20V10.22H262.873V20H261.293ZM262.093 8.7C261.746 8.7 261.453 8.58667 261.213 8.36C260.986 8.13333 260.873 7.84667 260.873 7.5C260.873 7.14 260.986 6.84667 261.213 6.62C261.453 6.39333 261.746 6.28 262.093 6.28C262.439 6.28 262.726 6.39333 262.953 6.62C263.179 6.84667 263.293 7.14 263.293 7.5C263.293 7.84667 263.179 8.13333 262.953 8.36C262.726 8.58667 262.439 8.7 262.093 8.7ZM266.195 24V10.22H267.735V11.84H268.015C268.268 11.3467 268.675 10.9067 269.235 10.52C269.808 10.1333 270.602 9.94 271.615 9.94C272.455 9.94 273.222 10.1467 273.915 10.56C274.622 10.96 275.182 11.5333 275.595 12.28C276.022 13.0267 276.235 13.9267 276.235 14.98V15.24C276.235 16.28 276.028 17.18 275.615 17.94C275.202 18.7 274.642 19.28 273.935 19.68C273.242 20.08 272.468 20.28 271.615 20.28C270.935 20.28 270.355 20.1867 269.875 20C269.408 19.8267 269.028 19.6 268.735 19.32C268.442 19.04 268.215 18.7533 268.055 18.46H267.775V24H266.195ZM271.195 18.88C272.208 18.88 273.028 18.56 273.655 17.92C274.295 17.2667 274.615 16.36 274.615 15.2V15.02C274.615 13.86 274.295 12.96 273.655 12.32C273.028 11.6667 272.208 11.34 271.195 11.34C270.195 11.34 269.368 11.6667 268.715 12.32C268.075 12.96 267.755 13.86 267.755 15.02V15.2C267.755 16.36 268.075 17.2667 268.715 17.92C269.368 18.56 270.195 18.88 271.195 18.88ZM282.256 20C281.696 20 281.263 19.8467 280.956 19.54C280.663 19.2333 280.516 18.8133 280.516 18.28V11.6H277.576V10.22H280.516V6.74H282.096V10.22H285.296V11.6H282.096V18.04C282.096 18.44 282.289 18.64 282.676 18.64H284.856V20H282.256Z" fill="white"/>
<path d="M346.04 20V7.52H341.54V6H352.22V7.52H347.72V20H346.04ZM358.647 20.28C357.633 20.28 356.727 20.1 355.927 19.74C355.127 19.38 354.493 18.84 354.027 18.12C353.573 17.3867 353.347 16.4733 353.347 15.38V14.96H355.007V15.38C355.007 16.54 355.347 17.4067 356.027 17.98C356.707 18.54 357.58 18.82 358.647 18.82C359.74 18.82 360.573 18.5733 361.147 18.08C361.72 17.5867 362.007 16.9667 362.007 16.22C362.007 15.7 361.873 15.2867 361.607 14.98C361.353 14.6733 360.993 14.4267 360.527 14.24C360.06 14.04 359.513 13.8667 358.887 13.72L357.847 13.46C357.033 13.2467 356.313 12.9867 355.687 12.68C355.06 12.3733 354.567 11.9733 354.207 11.48C353.86 10.9733 353.687 10.3267 353.687 9.54C353.687 8.75333 353.88 8.07333 354.267 7.5C354.667 6.92667 355.22 6.48667 355.927 6.18C356.647 5.87333 357.473 5.72 358.407 5.72C359.353 5.72 360.2 5.88667 360.947 6.22C361.707 6.54 362.3 7.02 362.727 7.66C363.167 8.28667 363.387 9.08 363.387 10.04V10.88H361.727V10.04C361.727 9.36 361.58 8.81333 361.287 8.4C361.007 7.98667 360.613 7.68 360.107 7.48C359.613 7.28 359.047 7.18 358.407 7.18C357.487 7.18 356.747 7.38667 356.187 7.8C355.627 8.2 355.347 8.77333 355.347 9.52C355.347 10.0133 355.467 10.4133 355.707 10.72C355.947 11.0267 356.287 11.28 356.727 11.48C357.167 11.6667 357.693 11.8333 358.307 11.98L359.347 12.24C360.16 12.4133 360.887 12.6533 361.527 12.96C362.18 13.2533 362.7 13.66 363.087 14.18C363.473 14.6867 363.667 15.3533 363.667 16.18C363.667 17.0067 363.46 17.7267 363.047 18.34C362.633 18.9533 362.047 19.4333 361.287 19.78C360.54 20.1133 359.66 20.28 358.647 20.28ZM370.812 20.28C369.866 20.28 369.012 20.08 368.252 19.68C367.506 19.2667 366.912 18.68 366.472 17.92C366.046 17.16 365.832 16.26 365.832 15.22V15C365.832 13.9467 366.046 13.0467 366.472 12.3C366.912 11.54 367.506 10.96 368.252 10.56C369.012 10.1467 369.866 9.94 370.812 9.94C371.746 9.94 372.539 10.1133 373.192 10.46C373.859 10.8067 374.379 11.2667 374.752 11.84C375.139 12.4133 375.386 13.0267 375.492 13.68L373.952 14C373.886 13.52 373.726 13.08 373.472 12.68C373.232 12.28 372.892 11.96 372.452 11.72C372.012 11.48 371.472 11.36 370.832 11.36C370.179 11.36 369.592 11.5067 369.072 11.8C368.566 12.0933 368.159 12.5133 367.852 13.06C367.559 13.6067 367.412 14.26 367.412 15.02V15.2C367.412 15.96 367.559 16.6133 367.852 17.16C368.159 17.7067 368.566 18.1267 369.072 18.42C369.592 18.7133 370.179 18.86 370.832 18.86C371.806 18.86 372.546 18.6067 373.052 18.1C373.572 17.5933 373.892 16.9667 374.012 16.22L375.572 16.56C375.426 17.2 375.159 17.8067 374.772 18.38C374.386 18.9533 373.859 19.4133 373.192 19.76C372.539 20.1067 371.746 20.28 370.812 20.28ZM378.265 20V10.22H379.805V11.42H380.085C380.259 10.9933 380.525 10.68 380.885 10.48C381.245 10.28 381.719 10.18 382.305 10.18H383.465V11.62H382.205C381.499 11.62 380.925 11.82 380.485 12.22C380.059 12.6067 379.845 13.2133 379.845 14.04V20H378.265ZM385.805 20V10.22H387.385V20H385.805ZM386.605 8.7C386.258 8.7 385.965 8.58667 385.725 8.36C385.498 8.13333 385.385 7.84667 385.385 7.5C385.385 7.14 385.498 6.84667 385.725 6.62C385.965 6.39333 386.258 6.28 386.605 6.28C386.951 6.28 387.238 6.39333 387.465 6.62C387.691 6.84667 387.805 7.14 387.805 7.5C387.805 7.84667 387.691 8.13333 387.465 8.36C387.238 8.58667 386.951 8.7 386.605 8.7ZM390.707 24V10.22H392.247V11.84H392.527C392.78 11.3467 393.187 10.9067 393.747 10.52C394.32 10.1333 395.114 9.94 396.127 9.94C396.967 9.94 397.734 10.1467 398.427 10.56C399.134 10.96 399.694 11.5333 400.107 12.28C400.534 13.0267 400.747 13.9267 400.747 14.98V15.24C400.747 16.28 400.54 17.18 400.127 17.94C399.714 18.7 399.154 19.28 398.447 19.68C397.754 20.08 396.98 20.28 396.127 20.28C395.447 20.28 394.867 20.1867 394.387 20C393.92 19.8267 393.54 19.6 393.247 19.32C392.954 19.04 392.727 18.7533 392.567 18.46H392.287V24H390.707ZM395.707 18.88C396.72 18.88 397.54 18.56 398.167 17.92C398.807 17.2667 399.127 16.36 399.127 15.2V15.02C399.127 13.86 398.807 12.96 398.167 12.32C397.54 11.6667 396.72 11.34 395.707 11.34C394.707 11.34 393.88 11.6667 393.227 12.32C392.587 12.96 392.267 13.86 392.267 15.02V15.2C392.267 16.36 392.587 17.2667 393.227 17.92C393.88 18.56 394.707 18.88 395.707 18.88ZM406.768 20C406.208 20 405.774 19.8467 405.468 19.54C405.174 19.2333 405.028 18.8133 405.028 18.28V11.6H402.088V10.22H405.028V6.74H406.608V10.22H409.808V11.6H406.608V18.04C406.608 18.44 406.801 18.64 407.188 18.64H409.368V20H406.768Z" fill="white"/>
<path d="M466.6 20V6H472.26C473.127 6 473.887 6.15333 474.54 6.46C475.207 6.75333 475.727 7.18 476.1 7.74C476.473 8.28667 476.66 8.94667 476.66 9.72V9.94C476.66 10.86 476.44 11.5867 476 12.12C475.56 12.6533 475.04 13.0133 474.44 13.2V13.48C474.92 13.4933 475.313 13.6533 475.62 13.96C475.94 14.2533 476.1 14.7 476.1 15.3V20H474.44V15.5C474.44 15.1 474.327 14.7933 474.1 14.58C473.887 14.3667 473.56 14.26 473.12 14.26H468.28V20H466.6ZM468.28 12.74H472.1C473.02 12.74 473.727 12.52 474.22 12.08C474.727 11.6267 474.98 11 474.98 10.2V10.06C474.98 9.26 474.733 8.64 474.24 8.2C473.747 7.74667 473.033 7.52 472.1 7.52H468.28V12.74ZM483.757 20.28C482.771 20.28 481.904 20.0733 481.157 19.66C480.411 19.2333 479.831 18.64 479.417 17.88C479.004 17.12 478.797 16.24 478.797 15.24V15C478.797 13.9867 479.004 13.1 479.417 12.34C479.831 11.58 480.404 10.9933 481.137 10.58C481.871 10.1533 482.711 9.94 483.657 9.94C484.577 9.94 485.391 10.14 486.097 10.54C486.804 10.9267 487.357 11.4867 487.757 12.22C488.157 12.9533 488.357 13.8133 488.357 14.8V15.52H480.377C480.417 16.5733 480.757 17.4 481.397 18C482.037 18.5867 482.837 18.88 483.797 18.88C484.637 18.88 485.284 18.6867 485.737 18.3C486.191 17.9133 486.537 17.4533 486.777 16.92L488.137 17.58C487.937 17.9933 487.657 18.4067 487.297 18.82C486.951 19.2333 486.491 19.58 485.917 19.86C485.357 20.14 484.637 20.28 483.757 20.28ZM480.397 14.22H486.757C486.704 13.3133 486.391 12.6067 485.817 12.1C485.257 11.5933 484.537 11.34 483.657 11.34C482.764 11.34 482.031 11.5933 481.457 12.1C480.884 12.6067 480.531 13.3133 480.397 14.22ZM494.113 20.28C493.433 20.28 492.813 20.16 492.253 19.92C491.693 19.68 491.253 19.3333 490.933 18.88C490.613 18.4267 490.453 17.8733 490.453 17.22C490.453 16.5533 490.613 16.0067 490.933 15.58C491.253 15.14 491.693 14.8133 492.253 14.6C492.813 14.3733 493.44 14.26 494.133 14.26H497.433V13.54C497.433 12.8467 497.226 12.3 496.813 11.9C496.413 11.5 495.813 11.3 495.013 11.3C494.226 11.3 493.613 11.4933 493.173 11.88C492.733 12.2533 492.433 12.76 492.273 13.4L490.793 12.92C490.953 12.3733 491.206 11.88 491.553 11.44C491.9 10.9867 492.36 10.6267 492.933 10.36C493.52 10.08 494.22 9.94 495.033 9.94C496.286 9.94 497.26 10.2667 497.953 10.92C498.646 11.56 498.993 12.4667 498.993 13.64V18.06C498.993 18.46 499.18 18.66 499.553 18.66H500.453V20H499.073C498.633 20 498.28 19.88 498.013 19.64C497.746 19.3867 497.613 19.0533 497.613 18.64V18.54H497.373C497.226 18.7933 497.026 19.06 496.773 19.34C496.533 19.6067 496.2 19.8267 495.773 20C495.346 20.1867 494.793 20.28 494.113 20.28ZM494.293 18.92C495.226 18.92 495.98 18.6467 496.553 18.1C497.14 17.54 497.433 16.76 497.433 15.76V15.54H494.193C493.566 15.54 493.046 15.68 492.633 15.96C492.233 16.2267 492.033 16.6333 492.033 17.18C492.033 17.7267 492.24 18.1533 492.653 18.46C493.08 18.7667 493.626 18.92 494.293 18.92ZM506.844 20.28C505.897 20.28 505.044 20.08 504.284 19.68C503.537 19.2667 502.944 18.68 502.504 17.92C502.077 17.16 501.864 16.26 501.864 15.22V15C501.864 13.9467 502.077 13.0467 502.504 12.3C502.944 11.54 503.537 10.96 504.284 10.56C505.044 10.1467 505.897 9.94 506.844 9.94C507.777 9.94 508.57 10.1133 509.224 10.46C509.89 10.8067 510.41 11.2667 510.784 11.84C511.17 12.4133 511.417 13.0267 511.524 13.68L509.984 14C509.917 13.52 509.757 13.08 509.504 12.68C509.264 12.28 508.924 11.96 508.484 11.72C508.044 11.48 507.504 11.36 506.864 11.36C506.21 11.36 505.624 11.5067 505.104 11.8C504.597 12.0933 504.19 12.5133 503.884 13.06C503.59 13.6067 503.444 14.26 503.444 15.02V15.2C503.444 15.96 503.59 16.6133 503.884 17.16C504.19 17.7067 504.597 18.1267 505.104 18.42C505.624 18.7133 506.21 18.86 506.864 18.86C507.837 18.86 508.577 18.6067 509.084 18.1C509.604 17.5933 509.924 16.9667 510.044 16.22L511.604 16.56C511.457 17.2 511.19 17.8067 510.804 18.38C510.417 18.9533 509.89 19.4133 509.224 19.76C508.57 20.1067 507.777 20.28 506.844 20.28ZM517.487 20C516.927 20 516.493 19.8467 516.187 19.54C515.893 19.2333 515.747 18.8133 515.747 18.28V11.6H512.807V10.22H515.747V6.74H517.327V10.22H520.527V11.6H517.327V18.04C517.327 18.44 517.52 18.64 517.907 18.64H520.087V20H517.487Z" fill="white"/>
<path d="M577.6 20V6H580.86L585.74 18.94H586V6H587.66V20H584.4L579.54 7.04H579.26V20H577.6ZM595.421 20.28C594.435 20.28 593.568 20.0733 592.821 19.66C592.075 19.2333 591.495 18.64 591.081 17.88C590.668 17.12 590.461 16.24 590.461 15.24V15C590.461 13.9867 590.668 13.1 591.081 12.34C591.495 11.58 592.068 10.9933 592.801 10.58C593.535 10.1533 594.375 9.94 595.321 9.94C596.241 9.94 597.055 10.14 597.761 10.54C598.468 10.9267 599.021 11.4867 599.421 12.22C599.821 12.9533 600.021 13.8133 600.021 14.8V15.52H592.041C592.081 16.5733 592.421 17.4 593.061 18C593.701 18.5867 594.501 18.88 595.461 18.88C596.301 18.88 596.948 18.6867 597.401 18.3C597.855 17.9133 598.201 17.4533 598.441 16.92L599.801 17.58C599.601 17.9933 599.321 18.4067 598.961 18.82C598.615 19.2333 598.155 19.58 597.581 19.86C597.021 20.14 596.301 20.28 595.421 20.28ZM592.061 14.22H598.421C598.368 13.3133 598.055 12.6067 597.481 12.1C596.921 11.5933 596.201 11.34 595.321 11.34C594.428 11.34 593.695 11.5933 593.121 12.1C592.548 12.6067 592.195 13.3133 592.061 14.22ZM601.313 20L605.233 15.04L601.433 10.22H603.333L606.253 14H606.533L609.433 10.22H611.353L607.533 15.04L611.453 20H609.533L606.533 16.1H606.253L603.253 20H601.313ZM617.569 20C617.009 20 616.575 19.8467 616.269 19.54C615.975 19.2333 615.829 18.8133 615.829 18.28V11.6H612.889V10.22H615.829V6.74H617.409V10.22H620.609V11.6H617.409V18.04C617.409 18.44 617.602 18.64 617.989 18.64H620.169V20H617.569ZM626.768 20.28C625.394 20.28 624.308 19.8933 623.508 19.12C622.721 18.3467 622.328 17.24 622.328 15.8V14.72H623.988V15.8C623.988 16.6667 624.214 17.3733 624.668 17.92C625.134 18.4667 625.828 18.74 626.748 18.74C627.681 18.74 628.341 18.4733 628.728 17.94C629.114 17.3933 629.308 16.68 629.308 15.8V7.52H626.848V6H632.508V7.52H630.988V15.8C630.988 17.2533 630.628 18.3667 629.908 19.14C629.188 19.9 628.141 20.28 626.768 20.28ZM639.643 20.28C638.629 20.28 637.723 20.1 636.923 19.74C636.123 19.38 635.489 18.84 635.023 18.12C634.569 17.3867 634.343 16.4733 634.343 15.38V14.96H636.003V15.38C636.003 16.54 636.343 17.4067 637.023 17.98C637.703 18.54 638.576 18.82 639.643 18.82C640.736 18.82 641.569 18.5733 642.143 18.08C642.716 17.5867 643.003 16.9667 643.003 16.22C643.003 15.7 642.869 15.2867 642.603 14.98C642.349 14.6733 641.989 14.4267 641.523 14.24C641.056 14.04 640.509 13.8667 639.883 13.72L638.843 13.46C638.029 13.2467 637.309 12.9867 636.683 12.68C636.056 12.3733 635.563 11.9733 635.203 11.48C634.856 10.9733 634.683 10.3267 634.683 9.54C634.683 8.75333 634.876 8.07333 635.263 7.5C635.663 6.92667 636.216 6.48667 636.923 6.18C637.643 5.87333 638.469 5.72 639.403 5.72C640.349 5.72 641.196 5.88667 641.943 6.22C642.703 6.54 643.296 7.02 643.723 7.66C644.163 8.28667 644.383 9.08 644.383 10.04V10.88H642.723V10.04C642.723 9.36 642.576 8.81333 642.283 8.4C642.003 7.98667 641.609 7.68 641.103 7.48C640.609 7.28 640.043 7.18 639.403 7.18C638.483 7.18 637.743 7.38667 637.183 7.8C636.623 8.2 636.343 8.77333 636.343 9.52C636.343 10.0133 636.463 10.4133 636.703 10.72C636.943 11.0267 637.283 11.28 637.723 11.48C638.163 11.6667 638.689 11.8333 639.303 11.98L640.343 12.24C641.156 12.4133 641.883 12.6533 642.523 12.96C643.176 13.2533 643.696 13.66 644.083 14.18C644.469 14.6867 644.663 15.3533 644.663 16.18C644.663 17.0067 644.456 17.7267 644.043 18.34C643.629 18.9533 643.043 19.4333 642.283 19.78C641.536 20.1133 640.656 20.28 639.643 20.28Z" fill="white"/>
<path d="M706.26 20.28C705.247 20.28 704.34 20.1 703.54 19.74C702.74 19.38 702.107 18.84 701.64 18.12C701.187 17.3867 700.96 16.4733 700.96 15.38V14.96H702.62V15.38C702.62 16.54 702.96 17.4067 703.64 17.98C704.32 18.54 705.193 18.82 706.26 18.82C707.353 18.82 708.187 18.5733 708.76 18.08C709.333 17.5867 709.62 16.9667 709.62 16.22C709.62 15.7 709.487 15.2867 709.22 14.98C708.967 14.6733 708.607 14.4267 708.14 14.24C707.673 14.04 707.127 13.8667 706.5 13.72L705.46 13.46C704.647 13.2467 703.927 12.9867 703.3 12.68C702.673 12.3733 702.18 11.9733 701.82 11.48C701.473 10.9733 701.3 10.3267 701.3 9.54C701.3 8.75333 701.493 8.07333 701.88 7.5C702.28 6.92667 702.833 6.48667 703.54 6.18C704.26 5.87333 705.087 5.72 706.02 5.72C706.967 5.72 707.813 5.88667 708.56 6.22C709.32 6.54 709.913 7.02 710.34 7.66C710.78 8.28667 711 9.08 711 10.04V10.88H709.34V10.04C709.34 9.36 709.193 8.81333 708.9 8.4C708.62 7.98667 708.227 7.68 707.72 7.48C707.227 7.28 706.66 7.18 706.02 7.18C705.1 7.18 704.36 7.38667 703.8 7.8C703.24 8.2 702.96 8.77333 702.96 9.52C702.96 10.0133 703.08 10.4133 703.32 10.72C703.56 11.0267 703.9 11.28 704.34 11.48C704.78 11.6667 705.307 11.8333 705.92 11.98L706.96 12.24C707.773 12.4133 708.5 12.6533 709.14 12.96C709.793 13.2533 710.313 13.66 710.7 14.18C711.087 14.6867 711.28 15.3533 711.28 16.18C711.28 17.0067 711.073 17.7267 710.66 18.34C710.247 18.9533 709.66 19.4333 708.9 19.78C708.153 20.1133 707.273 20.28 706.26 20.28ZM716.406 20L712.906 10.22H714.586L717.526 18.82H717.806L720.746 10.22H722.426L718.926 20H716.406ZM728.777 20.28C727.79 20.28 726.923 20.0733 726.177 19.66C725.43 19.2333 724.85 18.64 724.437 17.88C724.023 17.12 723.817 16.24 723.817 15.24V15C723.817 13.9867 724.023 13.1 724.437 12.34C724.85 11.58 725.423 10.9933 726.157 10.58C726.89 10.1533 727.73 9.94 728.677 9.94C729.597 9.94 730.41 10.14 731.117 10.54C731.823 10.9267 732.377 11.4867 732.777 12.22C733.177 12.9533 733.377 13.8133 733.377 14.8V15.52H725.397C725.437 16.5733 725.777 17.4 726.417 18C727.057 18.5867 727.857 18.88 728.817 18.88C729.657 18.88 730.303 18.6867 730.757 18.3C731.21 17.9133 731.557 17.4533 731.797 16.92L733.157 17.58C732.957 17.9933 732.677 18.4067 732.317 18.82C731.97 19.2333 731.51 19.58 730.937 19.86C730.377 20.14 729.657 20.28 728.777 20.28ZM725.417 14.22H731.777C731.723 13.3133 731.41 12.6067 730.837 12.1C730.277 11.5933 729.557 11.34 728.677 11.34C727.783 11.34 727.05 11.5933 726.477 12.1C725.903 12.6067 725.55 13.3133 725.417 14.22ZM736.133 20V6H737.713V20H736.133ZM744.635 20C744.075 20 743.642 19.8467 743.335 19.54C743.042 19.2333 742.895 18.8133 742.895 18.28V11.6H739.955V10.22H742.895V6.74H744.475V10.22H747.675V11.6H744.475V18.04C744.475 18.44 744.668 18.64 745.055 18.64H747.235V20H744.635ZM754.363 20.28C753.376 20.28 752.509 20.0733 751.763 19.66C751.016 19.2333 750.436 18.64 750.023 17.88C749.609 17.12 749.403 16.24 749.403 15.24V15C749.403 13.9867 749.609 13.1 750.023 12.34C750.436 11.58 751.009 10.9933 751.743 10.58C752.476 10.1533 753.316 9.94 754.263 9.94C755.183 9.94 755.996 10.14 756.703 10.54C757.409 10.9267 757.963 11.4867 758.363 12.22C758.763 12.9533 758.963 13.8133 758.963 14.8V15.52H750.983C751.023 16.5733 751.363 17.4 752.003 18C752.643 18.5867 753.443 18.88 754.403 18.88C755.243 18.88 755.889 18.6867 756.343 18.3C756.796 17.9133 757.143 17.4533 757.383 16.92L758.743 17.58C758.543 17.9933 758.263 18.4067 757.903 18.82C757.556 19.2333 757.096 19.58 756.523 19.86C755.963 20.14 755.243 20.28 754.363 20.28ZM751.003 14.22H757.363C757.309 13.3133 756.996 12.6067 756.423 12.1C755.863 11.5933 755.143 11.34 754.263 11.34C753.369 11.34 752.636 11.5933 752.063 12.1C751.489 12.6067 751.136 13.3133 751.003 14.22Z" fill="white"/>
<path d="M12.7451 102.719L6.00005 28.0068H79.9056L73.1535 102.707L42.9071 110.988L12.7451 102.719Z" stroke="#FF8B4A"/>
<path fill-rule="evenodd" clip-rule="evenodd" d="M0 29.8403L6.87164 106.969L37.7107 115.507L68.6748 106.928L75.5464 29.8403H0ZM14.0349 45.6035H37.7317H37.7733H61.4284L60.5539 55.0572L37.7733 55.0572H24.4048L25.2794 64.74L37.7317 64.74H59.7001L57.0972 93.7675L37.7733 99.1283V99.1815L18.3661 93.7675L17.0334 78.9206H26.5288L27.1951 86.4794L37.7525 89.3057L48.289 86.4794L49.3927 74.1937H37.7317V74.1729H16.617L14.0349 45.6035Z" fill="#FF8B4A"/>
<path d="M120.644 102.699L113.824 27.8563H188.563L181.736 102.687L151.147 110.984L120.644 102.699Z" stroke="#6978FF"/>
<path fill-rule="evenodd" clip-rule="evenodd" d="M177.263 107.051L184.16 29.6852H108.453L115.343 107.063L146.26 115.657L177.263 107.051ZM146.274 45.5022H122.541L123.402 54.9924L146.274 54.9924L146.307 54.9924L159.629 54.9924L158.767 64.7104L146.274 64.7104H124.248L125.097 74.2004L146.307 74.2004H157.945L156.845 86.5083L146.274 89.3651V89.3659L146.265 89.3683L135.709 86.5144L135.035 78.9456H129.906H125.521L126.848 93.8464L146.263 99.243L146.307 99.2309V99.2293L165.704 93.8464L165.846 92.243L168.074 67.2588L168.305 64.7104L170.016 45.5022H146.307H146.274Z" fill="#6978FF"/>
<path d="M222.901 43.0068C222.901 35.5509 228.946 29.5068 236.401 29.5068H289.083C296.539 29.5068 302.583 35.5509 302.583 43.0068V95.6884C302.583 103.144 296.539 109.188 289.083 109.188H236.401C228.946 109.188 222.901 103.144 222.901 95.6883V43.0068Z" stroke="#EAFF69"/>
<path fill-rule="evenodd" clip-rule="evenodd" d="M231.111 33.3252C223.379 33.3252 217.111 39.5932 217.111 47.3252V100.007C217.111 107.739 223.379 114.007 231.111 114.007H283.792C291.524 114.007 297.792 107.739 297.792 100.007V47.3252C297.792 39.5932 291.524 33.3252 283.792 33.3252H231.111ZM281.089 85.1086C288.198 87.9923 290.599 91.0831 291.189 94.7644C291.757 97.9318 291.051 99.9872 290.944 100.294C288.321 109.267 273.695 109.559 267.851 103.63C267.674 103.43 267.506 103.243 267.346 103.065C266.395 102.007 265.736 101.274 265.106 99.8952C266.679 98.9901 267.455 98.5434 268.231 98.0958C268.987 97.6596 269.742 97.2225 271.234 96.3597C272.875 98.8829 274.393 100.271 277.124 100.839C280.828 101.291 284.555 100.018 283.719 96.0836C283.221 94.2205 280.751 93.1746 277.871 91.9551C275.783 91.0711 273.48 90.0958 271.556 88.652C266.908 85.5305 265.819 77.9455 269.638 73.6124C270.911 72.0095 273.082 70.813 275.36 70.2378C275.753 70.1882 276.147 70.1367 276.542 70.0853C276.941 70.0332 277.34 69.9812 277.737 69.9311C282.3 69.839 285.153 71.0431 287.247 73.3823C287.83 73.9727 288.305 74.6094 289.195 75.9899C288.694 76.3094 288.296 76.5625 287.95 76.7825C286.619 77.6293 286.053 77.9889 283.29 79.7784C282.546 78.1756 281.311 77.1709 280.007 76.7337C277.983 76.1202 275.429 76.7874 274.899 78.9271C274.715 79.5867 274.754 80.2003 275.045 81.2893C275.709 82.804 277.64 83.6252 279.661 84.4851C280.137 84.6876 280.618 84.8923 281.089 85.1086ZM253.425 70.4065H260.972C260.972 72.7218 260.976 75.0345 260.98 77.3456C260.989 81.9625 260.997 86.5726 260.972 91.1828C260.974 91.8087 260.984 92.4259 260.994 93.0333C261.05 96.5413 261.102 99.7261 259.637 102.426C258.449 104.842 256.179 106.429 253.548 107.196C249.506 108.124 245.641 107.595 242.765 105.869C240.84 104.688 239.337 102.871 238.317 100.777C239.339 100.153 240.359 99.5269 241.38 98.9009C242.403 98.273 243.427 97.6451 244.452 97.0191C244.5 97.0396 244.633 97.273 244.813 97.5893C244.835 97.6281 244.858 97.6683 244.882 97.7094C245.664 99.0208 246.339 99.9488 247.666 100.601C248.969 101.046 251.83 101.329 252.935 99.0362C253.473 98.1062 253.445 95.4972 253.412 92.3734C253.403 91.5815 253.395 90.7565 253.395 89.9173C253.395 86.6579 253.402 83.4099 253.41 80.1619C253.418 76.9139 253.425 73.666 253.425 70.4065Z" fill="#EAFF69"/>
<path d="M336.874 43.0068C336.874 35.5509 342.918 29.5068 350.374 29.5068H403.055C410.511 29.5068 416.555 35.5509 416.555 43.0068V95.6884C416.555 103.144 410.511 109.188 403.055 109.188H350.374C342.918 109.188 336.874 103.144 336.874 95.6883V43.0068Z" stroke="#007ACC"/>
<path fill-rule="evenodd" clip-rule="evenodd" d="M345.083 33.3252C337.351 33.3252 331.083 39.5932 331.083 47.3252V100.007C331.083 107.739 337.351 114.007 345.083 114.007H397.765C405.497 114.007 411.765 107.739 411.765 100.007V47.3252C411.765 39.5932 405.497 33.3252 397.765 33.3252H345.083ZM401.907 75.4C400.588 74.0423 398.882 73.0926 397.005 72.6707C395.047 72.3239 393.046 72.2636 391.07 72.4917C389.13 72.7494 387.318 73.5772 385.88 74.863C384.443 76.1489 383.449 77.8306 383.034 79.6803C382.812 81.2877 382.858 82.9191 383.171 84.5124C383.594 85.911 384.329 87.2032 385.323 88.2984C387.412 90.2769 389.937 91.7737 392.709 92.6767C396.244 94.1574 397.488 94.8648 398.096 95.7064C398.545 96.3459 398.747 97.1177 398.667 97.8867C398.586 98.6556 398.228 99.3726 397.655 99.9121C396.545 100.651 395.243 101.077 393.897 101.142C392.55 101.208 391.211 100.911 390.029 100.285C388.859 99.5659 387.847 98.6304 387.052 97.5322L386.58 96.8675L384.322 98.1459C383.078 98.8425 381.76 99.5755 381.411 99.7672C381.16 99.8978 380.919 100.046 380.69 100.21C381.235 101.267 381.921 102.249 382.732 103.131C384.879 105.257 387.673 106.664 390.706 107.145C392.687 107.405 394.693 107.425 396.678 107.205C398.546 107.044 400.335 106.403 401.86 105.348C403.385 104.294 404.59 102.864 405.349 101.207C405.902 99.6971 406.106 98.0882 405.948 96.4935C405.789 94.8988 405.272 93.3569 404.432 91.9757C402.946 89.7898 400.537 88.2515 394.927 85.9186C391.88 84.6423 390.909 84.016 390.387 82.972C390.145 82.5365 390.029 82.0466 390.049 81.553C390.038 79.5439 391.569 78.3423 393.944 78.4999C394.694 78.5254 395.425 78.7342 396.069 79.1068C396.713 79.4794 397.249 80.0036 397.626 80.6305C397.964 81.112 398.262 81.4252 398.337 81.3762C400.403 80.1426 403.81 77.9311 403.786 77.8352C403.265 76.9525 402.634 76.1347 401.907 75.4ZM378.63 78.9282L378.606 75.8303L378.567 72.7453L364.87 72.7091C357.343 72.6963 351.135 72.7197 351.098 72.7687C351.012 73.8076 350.983 74.8502 351.01 75.8921V78.9346H361.22V106.941H368.42V78.9282H378.63Z" fill="#007ACC"/>
<path d="M497.069 51.8983C497.59 51.8916 498.114 51.8882 498.639 51.8882C523.96 51.8882 544.486 59.7094 544.486 69.3574C544.486 76.7291 532.502 83.0343 515.554 85.5992" stroke="#61DAFB"/>
<path d="M472.607 33.2513C473.35 31.6972 474.383 30.5026 475.716 29.7346C484.088 24.9106 501.139 38.7397 513.799 60.6228C526.459 82.5059 529.935 104.156 521.562 108.98C520.2 109.765 518.608 110.056 516.843 109.899" stroke="#61DAFB"/>
<path d="M506.097 33.6478C512.22 29.1847 517.778 27.554 521.562 29.7345C529.935 34.5585 526.459 56.2089 513.799 78.092C504.591 94.0075 493.061 105.663 484.237 108.98" stroke="#61DAFB"/>
<path d="M490.902 82.1826C495.62 82.1826 499.446 78.3651 499.446 73.656C499.446 68.9469 495.62 65.1294 490.902 65.1294C486.183 65.1294 482.357 68.9469 482.357 73.656C482.357 78.3651 486.183 82.1826 490.902 82.1826Z" fill="#61DAFB"/>
<path d="M490.902 91.1252C516.222 91.1252 536.748 83.304 536.748 73.6561C536.748 64.0081 516.222 56.187 490.902 56.187C465.581 56.187 445.055 64.0081 445.055 73.6561C445.055 83.304 465.581 91.1252 490.902 91.1252Z" stroke="#61DAFB" stroke-width="5"/>
<path d="M475.742 82.3907C488.402 104.274 505.452 118.103 513.825 113.279C522.197 108.455 518.721 86.8046 506.061 64.9215C493.401 43.0385 476.351 29.2093 467.978 34.0333C459.606 38.8572 463.082 60.5076 475.742 82.3907Z" stroke="#61DAFB" stroke-width="5"/>
<path d="M475.742 64.9215C463.082 86.8046 459.606 108.455 467.978 113.279C476.351 118.103 493.401 104.274 506.061 82.3907C518.722 60.5076 522.197 38.8572 513.825 34.0333C505.452 29.2093 488.402 43.0384 475.742 64.9215Z" stroke="#61DAFB" stroke-width="5"/>
<circle cx="621.453" cy="69.8276" r="43.4218" stroke="white"/>
<path d="M613.487 29.3693C613.298 29.3864 612.698 29.4465 612.157 29.4893C599.694 30.613 588.02 37.3379 580.626 47.6739C576.509 53.421 573.875 59.94 572.88 66.845C572.529 69.2553 572.486 69.9672 572.486 73.2353C572.486 76.5034 572.529 77.2153 572.88 79.6256C575.265 96.1033 586.991 109.948 602.893 115.077C605.741 115.995 608.743 116.621 612.157 116.998C613.487 117.144 619.234 117.144 620.563 116.998C626.456 116.347 631.448 114.888 636.372 112.375C637.127 111.989 637.273 111.886 637.17 111.8C637.101 111.749 633.884 107.434 630.025 102.219L623.008 92.7408L614.216 79.7286C609.378 72.5748 605.398 66.7249 605.364 66.7249C605.329 66.7163 605.295 72.4976 605.278 79.557C605.252 91.9174 605.244 92.4149 605.089 92.7065C604.866 93.1268 604.695 93.2984 604.334 93.4871C604.06 93.6243 603.82 93.6501 602.525 93.6501H601.041L600.646 93.4013C600.389 93.2383 600.2 93.0239 600.071 92.7752L599.891 92.3892L599.908 75.191L599.934 57.9843L600.2 57.6497C600.337 57.4696 600.629 57.238 600.835 57.1265C601.186 56.9549 601.324 56.9378 602.808 56.9378C604.558 56.9378 604.849 57.0064 605.304 57.5039C605.432 57.6412 610.193 64.8121 615.889 73.4497C621.584 82.0874 629.373 93.8817 633.198 99.6716L640.146 110.196L640.498 109.965C643.611 107.94 646.905 105.058 649.513 102.056C655.063 95.683 658.64 87.9116 659.84 79.6256C660.192 77.2153 660.235 76.5034 660.235 73.2353C660.235 69.9672 660.192 69.2553 659.84 66.845C657.456 50.3673 645.73 36.523 629.827 31.3936C627.022 30.4844 624.037 29.8582 620.692 29.4808C619.869 29.395 614.199 29.3006 613.487 29.3693ZM631.448 55.9085C631.86 56.1143 632.195 56.5089 632.315 56.9206C632.383 57.1436 632.401 61.9128 632.383 72.6606L632.358 88.0832L629.639 83.9145L626.911 79.7457V68.5348C626.911 61.2866 626.945 57.2123 626.997 57.015C627.134 56.5346 627.434 56.1572 627.846 55.9342C628.197 55.7541 628.326 55.7369 629.673 55.7369C630.942 55.7369 631.165 55.7541 631.448 55.9085Z" fill="white"/>
<path d="M639.717 110.385C639.417 110.574 639.323 110.702 639.589 110.557C639.777 110.445 640.086 110.213 640.035 110.205C640.009 110.205 639.863 110.291 639.717 110.385ZM639.125 110.771C638.971 110.891 638.971 110.9 639.16 110.805C639.263 110.754 639.348 110.694 639.348 110.677C639.348 110.608 639.306 110.625 639.125 110.771ZM638.697 111.028C638.542 111.148 638.542 111.157 638.731 111.063C638.834 111.011 638.92 110.951 638.92 110.934C638.92 110.865 638.877 110.883 638.697 111.028ZM638.268 111.286C638.113 111.406 638.113 111.414 638.302 111.32C638.405 111.269 638.491 111.208 638.491 111.191C638.491 111.123 638.448 111.14 638.268 111.286ZM637.616 111.629C637.29 111.8 637.307 111.869 637.633 111.706C637.779 111.629 637.89 111.552 637.89 111.534C637.89 111.474 637.882 111.483 637.616 111.629Z" fill="#262626"/>
<path fill-rule="evenodd" clip-rule="evenodd" d="M743.444 31.9739C749.846 33.3061 755.524 36.9704 759.375 42.255C761.237 44.7683 762.563 47.6367 763.272 50.6829C763.981 53.729 764.057 56.8883 763.496 59.9652C762.952 62.912 761.799 65.7132 760.112 68.1902C762.577 72.7309 763.406 77.9804 762.462 83.0598C761.89 86.0939 760.683 88.9728 758.92 91.5084C757.158 94.0439 754.881 96.1789 752.237 97.7737L732.503 109.973C726.861 113.28 720.191 114.372 713.789 113.038C707.387 111.703 701.709 108.038 697.858 102.753C695.999 100.239 694.675 97.3707 693.968 94.3251C693.26 91.2796 693.185 88.1214 693.745 85.0456C694.29 82.0992 695.442 79.2982 697.127 76.8206C694.668 72.2822 693.838 67.0383 694.777 61.9627C695.348 58.9282 696.555 56.0487 698.317 53.513C700.079 50.9773 702.357 48.8426 705.002 47.2487L724.733 35.0464C730.373 31.7368 737.042 30.6417 743.444 31.9739ZM713.475 103.326C716.472 104.404 719.724 104.557 722.809 103.766H722.83C724.244 103.404 725.595 102.828 726.836 102.06L746.538 89.8572C748.125 88.8952 749.491 87.61 750.549 86.0851C751.606 84.5602 752.33 82.8298 752.675 81.0065C753.012 79.1566 752.966 77.2571 752.54 75.4256C752.114 73.594 751.317 71.8693 750.198 70.3581C748.322 67.7803 745.715 65.8256 742.715 64.7472C739.715 63.6687 736.46 63.5163 733.372 64.3097C731.958 64.6721 730.607 65.2476 729.366 66.0164L721.84 70.6724C721.463 70.9021 721.054 71.0753 720.627 71.1864C719.696 71.4246 718.715 71.3781 717.811 71.0529C716.907 70.7277 716.122 70.1387 715.556 69.3622C715.222 68.9061 714.985 68.3855 714.862 67.8334C714.739 67.2813 714.731 66.7097 714.84 66.1545C714.943 65.6045 715.162 65.0825 715.482 64.6229C715.801 64.1632 716.214 63.7762 716.693 63.4872L736.439 51.326C736.813 51.0937 737.22 50.9194 737.646 50.809C738.577 50.5697 739.558 50.616 740.462 50.9419C741.365 51.2677 742.15 51.8581 742.714 52.6361C743.313 53.4569 743.597 54.4665 743.513 55.4796L743.439 56.1758L744.159 56.3932C746.924 57.1974 749.534 58.4626 751.879 60.1356L752.889 60.8317L753.262 59.7302C753.462 59.1452 753.618 58.5463 753.729 57.9383C754.065 56.0874 754.017 54.1873 753.588 52.3557C753.16 50.524 752.36 48.7999 751.238 47.2899C749.363 44.7109 746.756 42.7552 743.756 41.6767C740.755 40.5981 737.5 40.4465 734.412 41.2416C732.998 41.6053 731.647 42.1807 730.405 42.9482L710.701 55.1506C709.116 56.1126 707.751 57.3967 706.694 58.9199C705.636 60.443 704.911 62.1712 704.564 63.9925C704.22 65.8414 704.259 67.7412 704.679 69.5743C705.099 71.4075 705.891 73.1349 707.005 74.6497C708.88 77.228 711.487 79.1835 714.486 80.2625C717.486 81.3415 720.741 81.4943 723.828 80.701C725.243 80.3362 726.593 79.7598 727.835 78.9914L735.39 74.3384C735.767 74.1065 736.176 73.9322 736.604 73.8214C737.535 73.5835 738.515 73.6304 739.419 73.9562C740.323 74.2819 741.109 74.8715 741.674 75.6485C742.006 76.1054 742.241 76.6255 742.364 77.1767C742.487 77.7279 742.496 78.2985 742.39 78.8533C742.284 79.4036 742.064 79.9254 741.744 80.3853C741.423 80.8452 741.01 81.2329 740.531 81.5235L720.85 93.7259C720.475 93.9561 720.068 94.1293 719.642 94.2399C718.7 94.4861 717.705 94.4392 716.791 94.1054C715.876 93.7716 715.085 93.1668 714.522 92.3717C713.924 91.5501 713.642 90.5408 713.726 89.5282L713.8 88.832L713.08 88.6176C710.316 87.8109 707.706 86.5458 705.36 84.8752L704.35 84.1761L703.977 85.2776C703.778 85.8627 703.621 86.4616 703.51 87.0695C703.174 88.9204 703.222 90.8205 703.65 92.6522C704.079 94.4838 704.879 96.208 706.001 97.7179C707.874 100.294 710.478 102.247 713.475 103.326Z" fill="#FF3E00"/>
<path d="M763.971 40.5495L763.973 40.5526C765.794 43.0109 767.091 45.8166 767.785 48.7962C768.478 51.7758 768.553 54.8659 768.005 57.8756C767.472 60.7537 766.347 63.4895 764.699 65.9088L764.528 66.1607L764.673 66.4287C767.083 70.8687 767.894 76.0017 766.971 80.9684C766.411 83.9328 765.232 86.7457 763.51 89.223C761.788 91.7008 759.562 93.7871 756.979 95.3456L756.974 95.3485L737.245 107.545C731.711 110.786 725.17 111.857 718.891 110.548C712.611 109.239 707.04 105.643 703.262 100.458L703.26 100.456C701.442 97.9966 700.147 95.191 699.455 92.212C698.763 89.2333 698.689 86.1443 699.237 83.1359C699.769 80.2579 700.894 77.5219 702.54 75.1017L702.711 74.85L702.566 74.5824C700.162 70.1448 699.351 65.0174 700.268 60.0544C700.827 57.0894 702.006 54.276 703.727 51.7983C705.449 49.3205 707.676 47.2345 710.26 45.677L710.26 45.677L710.265 45.674L729.991 33.4747C735.523 30.2301 742.063 29.1569 748.342 30.4634C754.622 31.7703 760.193 35.3651 763.971 40.5495Z" stroke="#FF3E00"/>
</svg>
